<?xml version="1.0" standalone="no"?>
<!DOCTYPE svg PUBLIC "-//W3C//DTD SVG 20010904//EN"
 "http://www.w3.org/TR/2001/REC-SVG-20010904/DTD/svg10.dtd">
<svg version="1.0" xmlns="http://www.w3.org/2000/svg"
 width="296.000000pt" height="171.000000pt" viewBox="0 0 296.000000 171.000000"
 preserveAspectRatio="xMidYMid meet">

<g transform="translate(0.000000,171.000000) scale(0.100000,-0.100000)"
fill="#000000" stroke="none">
<path d="M872 1448 c-16 -16 -15 -43 1 -56 6 -5 50 -25 95 -44 l84 -33 104
-300 c58 -168 99 -302 94 -305 -15 -9 -73 -187 -67 -204 4 -9 18 -16 32 -16
25 0 25 -1 10 -30 -21 -41 -19 -82 8 -121 47 -70 147 -70 194 0 26 39 29 74 9
113 -14 26 -13 27 12 31 24 4 149 3 209 -1 21 -2 21 -3 6 -33 -44 -89 48 -188
145 -156 69 23 94 90 67 175 -6 19 -4 22 19 22 31 0 44 23 26 45 -11 13 -62
15 -336 15 -178 0 -324 3 -324 7 0 4 7 27 16 50 l17 43 306 0 c168 0 312 4
319 9 18 11 183 528 180 561 l-3 25 -409 3 c-293 1 -413 -1 -422 -9 -18 -15
-18 -34 2 -53 13 -14 62 -16 380 -16 l365 0 -7 -22 c-4 -13 -10 -33 -15 -45
l-9 -23 -308 0 c-319 0 -332 -2 -332 -42 0 -34 33 -38 325 -38 l287 0 -6 -25
c-3 -13 -11 -36 -16 -50 l-10 -25 -254 0 c-273 0 -281 -2 -274 -52 l3 -23 252
-3 252 -2 -16 -45 -15 -45 -266 2 -266 3 -111 320 -111 319 -105 43 c-116 47
-120 48 -137 31z m490 -1005 c27 -24 24 -71 -7 -85 -38 -17 -75 3 -75 41 0 53
45 78 82 44z m442 1 c35 -35 11 -94 -38 -94 -40 0 -59 59 -29 92 20 22 46 23
67 2z"/>
</g>
</svg>
