<?xml version="1.0" standalone="no"?>
<!DOCTYPE svg PUBLIC "-//W3C//DTD SVG 20010904//EN"
 "http://www.w3.org/TR/2001/REC-SVG-20010904/DTD/svg10.dtd">
<svg version="1.0" xmlns="http://www.w3.org/2000/svg"
 width="450.000000pt" height="300.000000pt" viewBox="0 0 450.000000 300.000000"
 preserveAspectRatio="xMidYMid meet">

<g transform="translate(0.000000,300.000000) scale(0.100000,-0.100000)"
fill="#000000" stroke="none">
<path d="M0 2510 c0 -338 3 -490 11 -490 5 0 7 -6 3 -12 -5 -9 -3 -9 9 1 9 7
14 17 11 22 -2 5 2 19 10 31 8 13 14 36 14 52 0 15 4 31 9 35 5 3 8 16 7 28
-1 12 5 24 12 27 17 6 19 27 3 24 -6 -2 -14 3 -16 10 -3 6 2 12 9 12 8 0 15 6
16 13 0 6 3 21 6 32 2 11 5 24 5 28 1 5 6 5 12 2 6 -4 13 2 16 14 3 11 9 18
14 15 5 -3 17 0 26 6 16 10 16 11 1 6 -13 -4 -16 0 -12 20 3 14 1 23 -4 20 -4
-2 -8 4 -9 14 -1 11 2 22 8 25 14 9 44 -17 46 -40 3 -31 15 -268 15 -287 -1
-10 3 -18 8 -18 4 0 7 105 6 233 -2 196 0 235 14 251 13 17 13 19 0 14 -12 -4
-16 1 -15 21 0 14 2 28 5 31 3 3 13 21 23 40 13 28 17 31 17 13 0 -16 4 -21
15 -17 11 5 15 -1 15 -22 0 -26 29 -519 46 -779 l7 -100 468 0 c306 0 469 3
469 10 0 7 -105 9 -303 6 -166 -2 -366 0 -445 4 -125 6 -144 9 -153 26 -10 19
-18 262 -21 660 -2 140 1 201 10 211 6 8 10 24 7 36 -2 12 0 22 5 22 5 0 12
16 16 35 4 21 13 37 25 40 11 4 16 11 13 17 -5 7 -1 9 9 5 12 -4 15 -1 12 14
-3 14 1 19 13 17 9 -2 16 2 15 9 -2 7 4 10 13 6 9 -3 14 0 12 8 -2 7 2 14 7
14 24 4 45 18 45 31 0 8 7 14 16 14 8 0 12 5 8 11 -4 8 0 8 15 0 17 -10 21 -9
21 4 0 13 -39 15 -320 15 l-320 0 0 -490z m133 43 c-5 -12 -3 -14 7 -8 8 5 11
4 6 -3 -4 -6 -13 -9 -22 -5 -11 4 -12 9 -3 19 15 19 20 18 12 -3z m27 -48 c0
-8 -4 -15 -10 -15 -5 0 -7 7 -4 15 4 8 8 15 10 15 2 0 4 -7 4 -15z m20 -29 c0
-2 -7 -6 -15 -10 -8 -3 -15 -1 -15 4 0 6 7 10 15 10 8 0 15 -2 15 -4z"/>
<path d="M1266 2984 c-5 -14 -4 -15 9 -4 17 14 19 20 6 20 -5 0 -12 -7 -15
-16z"/>
<path d="M1394 2913 c3 -49 8 -218 11 -378 8 -444 17 -749 22 -758 3 -5 11 -6
19 -3 8 3 100 6 204 6 124 1 192 5 196 12 5 7 0 9 -14 6 -12 -4 -22 -2 -22 3
0 5 -75 9 -170 9 l-169 0 -12 43 c-8 30 -10 190 -6 572 3 292 8 540 11 553 4
20 1 22 -35 22 l-41 0 6 -87z"/>
<path d="M1805 2990 c-8 -12 20 -24 35 -15 6 4 10 3 9 -2 -4 -20 2 -27 12 -13
9 12 10 12 5 -4 -9 -26 2 -54 25 -66 15 -8 19 -7 19 4 0 9 -6 13 -14 10 -11
-4 -13 0 -9 17 4 13 8 18 11 11 5 -17 77 -53 87 -44 5 4 5 1 1 -6 -4 -7 -11
-10 -16 -7 -15 9 -23 -16 -10 -28 9 -9 11 -9 7 -1 -6 10 12 24 28 24 12 0 43
-44 38 -55 -3 -9 2 -12 14 -9 16 5 19 0 17 -25 -2 -27 0 -29 16 -21 26 14 40
12 34 -3 -3 -8 2 -14 10 -14 11 0 13 5 5 19 -7 14 -6 18 5 18 9 0 12 7 9 20
-3 12 0 20 8 20 7 0 9 -3 6 -7 -4 -3 -2 -13 5 -20 9 -11 9 -17 -3 -24 -11 -7
-10 -9 6 -10 11 -1 26 -2 33 -2 7 1 11 -1 8 -4 -3 -3 4 -18 14 -34 13 -17 16
-30 10 -34 -5 -3 -10 -1 -10 5 0 6 -4 8 -10 5 -17 -11 -11 -25 10 -25 27 0 36
25 16 45 -9 9 -16 18 -16 21 0 11 14 0 50 -38 22 -24 40 -37 40 -30 0 7 4 11
9 8 5 -4 7 3 4 14 -3 11 -9 17 -14 14 -5 -3 -6 -10 -3 -16 4 -6 1 -9 -6 -6 -7
2 -14 12 -16 23 -1 10 -9 22 -16 26 -14 9 -5 13 25 9 10 -1 30 6 44 15 13 9
27 14 30 11 3 -3 7 -45 10 -93 2 -48 6 -106 9 -128 3 -22 7 -67 8 -101 3 -57
23 -121 27 -84 1 8 2 20 4 25 1 6 3 18 3 29 2 15 5 16 16 7 19 -16 32 4 16 24
-8 10 -8 15 1 21 8 5 10 3 4 -7 -5 -8 -4 -11 0 -6 12 11 14 47 2 47 -5 0 -4 7
3 15 6 8 9 18 6 23 -3 6 1 15 10 23 8 7 14 22 12 33 -1 12 2 23 7 26 6 3 11
-82 13 -229 3 -230 7 -261 36 -261 7 0 23 -11 36 -25 33 -35 60 -33 60 4 0 16
6 36 13 43 6 8 17 23 24 35 10 18 10 20 -8 16 -13 -4 -19 0 -19 12 0 11 5 15
19 10 10 -3 29 -1 42 4 13 5 17 10 9 10 -9 1 -23 10 -33 21 -19 22 -15 25 14
9 20 -10 53 -20 77 -21 6 -1 12 -6 12 -12 0 -6 5 -3 11 6 8 15 13 15 23 5 8
-6 12 -15 10 -18 -2 -4 8 -10 23 -14 18 -4 23 -9 15 -14 -7 -4 17 -8 53 -9 46
-1 90 -11 144 -32 131 -51 194 -133 215 -281 3 -20 10 -49 16 -65 9 -22 8 -31
-3 -39 -21 -16 -50 -143 -49 -215 2 -65 -24 -164 -39 -154 -5 2 -13 -14 -20
-36 -7 -22 -14 -38 -16 -36 -2 2 -24 -16 -49 -39 -26 -24 -54 -49 -63 -56 -51
-41 -88 -67 -108 -73 -30 -9 -38 -36 -12 -36 16 0 19 -4 15 -17 -8 -19 -2 -15
81 59 29 26 48 36 59 31 14 -5 16 -3 11 11 -6 14 -3 17 9 12 12 -5 15 -2 10
10 -4 12 -2 15 9 11 8 -4 17 -1 21 5 4 7 3 8 -4 4 -7 -4 -12 -2 -12 3 0 6 5
12 10 12 20 3 25 4 36 12 13 8 27 -7 37 -38 6 -17 4 -17 -13 4 -14 17 -20 19
-20 8 0 -9 7 -22 15 -30 12 -13 12 -17 -4 -31 -20 -18 -36 -22 -26 -6 3 6 1
10 -4 10 -6 0 -11 8 -11 18 1 15 2 15 15 -2 19 -26 31 -13 13 13 -14 20 -15
20 -53 -19 -28 -28 -41 -36 -47 -27 -4 6 -8 8 -8 2 0 -32 18 -33 39 -4 18 24
25 28 32 18 5 -8 8 -23 8 -34 0 -18 -1 -18 -8 -2 -6 18 -7 17 -24 -1 -10 -11
-15 -26 -11 -36 3 -9 2 -16 -4 -16 -6 0 -12 5 -14 12 -3 7 -18 -1 -38 -20 -18
-18 -30 -36 -26 -40 4 -4 16 3 26 16 10 12 22 22 26 22 4 0 3 -5 -4 -12 -7 -7
-12 -21 -12 -32 0 -16 -2 -18 -9 -7 -6 10 -10 10 -16 1 -5 -8 -13 -3 -26 17
l-19 28 -1 -30 c0 -24 -2 -26 -8 -11 -5 12 -10 16 -14 9 -4 -6 -4 -18 -1 -27
4 -11 1 -16 -10 -16 -9 0 -16 -4 -16 -8 0 -4 -20 -24 -44 -45 -41 -33 -46 -35
-60 -21 -15 14 -16 13 -16 -11 0 -18 4 -24 13 -19 7 5 6 0 -3 -11 -14 -16 -15
-16 -18 -1 -5 22 -21 11 -17 -12 1 -9 0 -11 -2 -4 -7 19 -23 4 -23 -21 0 -18
-2 -19 -10 -7 -8 12 -10 12 -16 -3 -3 -9 -4 -26 -1 -37 3 -11 1 -20 -4 -20 -9
0 -13 15 -9 39 1 7 -19 -4 -43 -25 -25 -22 -40 -42 -35 -45 7 -4 6 -9 0 -13
-6 -4 -10 -12 -8 -19 1 -7 1 -9 -1 -5 -5 9 -54 -21 -66 -39 -4 -7 -13 -13 -18
-13 -6 0 -8 4 -4 9 3 5 1 12 -4 15 -5 4 -8 -2 -6 -11 2 -10 4 -22 4 -26 1 -5
7 -5 14 -1 9 5 9 4 0 -6 -6 -7 -9 -20 -6 -29 4 -14 3 -14 -6 -1 -8 12 -13 12
-23 2 -17 -17 -36 -15 -40 6 -3 12 -6 9 -10 -10 -3 -15 -1 -25 3 -22 16 9 10
-3 -8 -17 -10 -8 -14 -9 -10 -2 4 6 3 14 -3 18 -5 3 -10 -3 -10 -14 0 -15 -5
-19 -17 -14 -10 3 -5 -5 11 -18 20 -15 31 -19 34 -11 2 7 8 12 14 12 6 0 8 -6
5 -14 -3 -8 10 -31 29 -52 24 -25 34 -31 32 -19 -2 10 3 20 10 22 7 3 12 -4
12 -19 0 -18 2 -20 10 -8 6 9 5 19 -2 28 -9 10 -8 16 2 22 9 6 17 4 22 -3 5
-7 8 -3 8 12 0 19 3 21 14 12 16 -13 32 2 21 19 -3 6 1 10 9 10 9 0 16 7 16
15 0 8 6 15 14 15 8 0 16 3 18 8 2 4 29 31 61 61 33 30 51 51 40 47 -11 -3 -6
4 12 20 62 52 96 86 92 90 -5 6 153 169 163 167 4 -1 7 4 6 11 0 8 20 36 47
64 26 28 47 54 47 57 0 11 53 50 63 47 5 -1 5 2 2 8 -8 14 23 50 42 50 8 0 11
5 8 10 -10 16 18 7 32 -10 7 -8 12 -22 12 -30 0 -11 -3 -10 -14 4 -16 21 -18
13 -6 -18 6 -16 10 -14 35 18 22 30 31 35 42 25 9 -7 14 -8 14 -1 0 6 -5 14
-10 17 -6 4 -7 11 -4 17 4 7 9 6 14 -3 7 -10 11 -10 24 0 12 10 13 17 4 31 -7
10 -16 16 -21 13 -5 -3 -4 -10 2 -16 6 -6 11 -16 11 -21 0 -6 -7 -3 -14 7 -12
16 -15 15 -41 -19 -15 -19 -29 -33 -32 -30 -6 5 68 105 78 106 3 0 12 -12 19
-26 l14 -25 18 23 c24 31 23 45 -2 23 -11 -10 -20 -14 -20 -9 0 6 17 26 37 45
31 29 34 30 21 8 -13 -20 -14 -29 -5 -38 8 -8 8 -11 -2 -11 -7 0 -9 -5 -6 -10
5 -8 11 -7 21 1 10 8 11 15 4 24 -7 8 -4 17 10 30 11 10 20 13 20 7 0 -6 -7
-15 -16 -20 -10 -6 -12 -12 -6 -16 5 -3 15 1 22 9 7 8 17 15 23 15 6 0 -6 -18
-28 -40 l-39 -40 24 -20 c13 -11 28 -20 34 -20 6 1 0 10 -13 20 -19 17 -21 23
-11 35 7 8 17 12 22 9 6 -4 6 -9 -1 -14 -9 -5 -7 -10 4 -20 13 -11 15 -10 9 3
-3 9 3 24 15 36 31 31 49 26 20 -5 l-24 -27 29 19 c20 13 31 15 33 7 3 -7 12
-10 21 -7 12 4 10 -1 -6 -15 -13 -11 -29 -18 -36 -15 -7 3 -27 -11 -43 -30
-17 -19 -39 -33 -49 -33 -23 2 -26 -24 -4 -31 13 -5 13 -3 0 13 -14 16 -13 17
7 11 17 -5 27 1 48 28 15 20 32 33 37 30 6 -4 4 -11 -6 -16 -14 -8 -15 -12 -4
-26 11 -14 10 -15 -7 -8 -16 6 -17 5 -8 -5 9 -9 16 -9 26 -1 8 7 18 8 22 4 5
-4 5 -1 1 6 -4 6 -14 12 -23 12 -9 0 5 16 30 35 50 38 58 42 55 23 -2 -7 3
-12 10 -10 8 1 11 -2 7 -8 -4 -6 -14 -9 -22 -6 -8 3 -11 1 -8 -4 3 -6 17 -7
30 -4 35 9 27 -22 -12 -46 -24 -14 -34 -16 -44 -7 -11 10 -11 9 0 -5 15 -20 2
-25 -17 -6 -7 7 -12 8 -12 2 0 -28 23 -31 57 -8 20 13 41 24 47 23 7 0 6 -3
-1 -6 -7 -2 -13 -11 -13 -19 0 -9 -5 -12 -10 -9 -6 3 -23 -3 -39 -14 -22 -16
-31 -18 -34 -9 -3 7 -6 2 -7 -12 -1 -23 -2 -23 -10 -5 -6 14 -9 16 -10 5 -2
-8 -2 -18 -1 -23 0 -4 -3 -6 -8 -5 -11 3 -81 -70 -81 -84 0 -6 -6 -6 -14 1 -9
8 -16 8 -20 2 -4 -5 -2 -12 4 -16 5 -3 10 -11 10 -17 0 -6 -7 -5 -16 3 -15 12
-16 11 -10 -9 6 -17 4 -21 -8 -16 -10 4 -23 -10 -41 -47 -20 -38 -29 -48 -35
-38 -5 7 -12 11 -15 7 -4 -3 1 -18 10 -32 10 -14 13 -26 7 -26 -6 0 -14 5 -17
10 -3 6 -11 10 -16 10 -6 0 -3 -10 5 -22 20 -29 20 -39 0 -31 -13 5 -15 2 -9
-17 5 -17 4 -21 -5 -15 -10 6 -11 1 -6 -20 6 -24 5 -27 -7 -17 -12 10 -18 1
-38 -48 -22 -56 -24 -58 -41 -43 -24 22 -23 -2 1 -26 19 -19 19 -18 37 20 l17
40 16 -23 c19 -27 51 -36 51 -14 0 18 31 86 46 103 7 7 15 9 18 5 4 -3 4 1 0
11 -3 9 -10 14 -15 11 -24 -15 7 25 38 49 31 23 38 25 45 12 15 -25 27 -17 15
9 l-12 25 -35 -21 -35 -20 30 29 c17 16 29 36 29 46 -2 13 -1 14 3 2 5 -18 4
-18 57 15 22 13 34 26 26 28 -7 3 -15 0 -19 -5 -3 -6 -16 -15 -27 -21 -19 -10
-21 -9 -21 14 0 16 2 21 7 14 14 -22 53 7 47 36 -2 13 0 21 4 18 5 -3 9 -12 9
-20 0 -11 6 -13 23 -8 41 12 55 26 20 20 -23 -4 -33 -1 -38 12 -5 13 -3 14 5
6 9 -9 25 -8 66 3 58 17 68 15 58 -11 -5 -13 -9 -14 -21 -5 -21 18 -38 -3 -24
-30 13 -23 2 -28 -17 -9 -9 9 -12 7 -12 -10 0 -24 4 -26 28 -13 29 15 92 23
92 11 0 -5 -3 -9 -7 -9 -26 4 -41 -3 -38 -18 1 -10 0 -12 -2 -5 -3 6 -9 12
-15 12 -5 0 -7 -7 -4 -16 3 -9 6 -19 6 -24 0 -5 17 -7 38 -4 20 2 30 2 22 -2
-85 -33 -90 -34 -90 -18 0 8 5 12 11 8 8 -4 9 1 4 17 -11 34 -12 34 -50 16
-19 -9 -35 -12 -35 -7 0 6 6 13 14 16 8 3 13 16 12 30 -1 32 -16 31 -16 -1 0
-15 -5 -24 -12 -23 -8 2 -12 -6 -10 -22 4 -21 2 -22 -12 -11 -10 8 -16 9 -16
3 0 -20 16 -21 59 -6 24 8 46 12 50 8 3 -4 0 -9 -6 -11 -7 -3 -13 -14 -13 -26
-1 -20 -2 -21 -14 -5 -7 10 -17 18 -21 18 -4 0 -2 -6 4 -13 6 -8 8 -17 4 -20
-10 -11 11 -8 53 6 69 24 94 28 94 16 0 -7 -3 -10 -6 -6 -10 9 -32 -16 -27
-30 3 -7 0 -13 -5 -13 -6 0 -13 8 -15 17 -3 13 -5 10 -6 -7 -2 -23 -3 -24 -15
-8 -12 16 -17 16 -57 4 -49 -16 -42 -21 8 -7 25 7 33 6 37 -6 11 -27 5 -38 -9
-19 -13 17 -15 18 -15 3 0 -9 6 -18 13 -18 6 -1 19 -2 27 -3 8 0 16 -10 18
-21 4 -18 3 -19 -10 -3 -12 15 -16 15 -43 2 l-30 -14 34 6 c23 4 31 3 27 -5
-8 -12 -4 -13 69 -13 30 0 38 -2 20 -4 -50 -8 -62 -14 -46 -24 8 -4 19 -7 25
-6 6 2 8 1 4 -1 -12 -7 -10 -61 2 -68 6 -4 10 -3 9 2 -4 25 4 39 23 40 13 1
18 -1 13 -5 -13 -9 -18 -159 -6 -166 5 -4 9 13 9 36 -1 24 0 54 0 67 2 24 3
24 16 6 8 -12 12 -33 9 -56 -4 -23 -1 -39 7 -44 8 -5 11 -4 7 3 -4 5 -3 21 2
34 8 22 9 21 25 -16 9 -21 16 -47 16 -57 0 -11 5 -19 11 -19 7 0 9 -11 6 -27
-3 -15 0 -38 5 -52 6 -15 12 -39 14 -56 15 -120 26 -167 44 -185 11 -11 20
-24 20 -28 0 -4 16 -25 35 -45 l35 -37 195 0 195 0 0 1500 0 1500 -1344 0
c-892 0 -1347 -3 -1351 -10z m419 -15 c-4 -8 -8 -15 -10 -15 -2 0 -4 7 -4 15
0 8 4 15 10 15 5 0 7 -7 4 -15z m-181 -128 c-3 -5 -9 -3 -14 4 -4 7 -5 17 -2
22 3 5 9 3 14 -4 4 -7 5 -17 2 -22z m82 23 c4 -6 -5 -10 -20 -10 -15 0 -24 4
-20 10 3 6 12 10 20 10 8 0 17 -4 20 -10z m-41 -34 c-3 -9 -12 -12 -22 -9 -15
6 -9 11 25 22 1 1 0 -5 -3 -13z m36 -43 c0 -13 -3 -13 -15 -3 -8 7 -12 16 -9
21 8 13 24 1 24 -18z m-35 -13 c3 -5 1 -10 -4 -10 -6 0 -11 5 -11 10 0 6 2 10
4 10 3 0 8 -4 11 -10z m638 -416 c9 -9 -4 -35 -14 -28 -5 3 -9 0 -9 -7 0 -8
-4 -8 -15 1 -8 7 -21 10 -30 7 -8 -4 -17 -1 -21 5 -4 6 -3 8 4 4 6 -3 13 -2
17 4 4 6 10 8 14 6 4 -3 13 -1 21 5 18 10 25 11 33 3z m23 -64 c0 -35 -13 -39
-25 -7 -6 16 -4 24 8 29 9 4 16 7 17 7 0 1 0 -12 0 -29z m-62 14 c9 -3 16 -11
16 -16 0 -6 -6 -6 -14 1 -11 9 -15 9 -19 -1 -4 -8 -6 -7 -6 5 -1 19 0 20 23
11z m-39 -83 c3 -5 0 -13 -6 -17 -8 -5 -9 -3 -4 6 6 10 4 12 -9 7 -10 -4 -15
-3 -11 3 8 13 22 13 30 1z m-5 -121 c0 -5 -5 -10 -11 -10 -5 0 -7 5 -4 10 3 6
8 10 11 10 2 0 4 -4 4 -10z m647 -542 c-3 -8 -6 -5 -6 6 -1 11 2 17 5 13 3 -3
4 -12 1 -19z m67 -110 c-10 -13 -25 -27 -31 -31 -18 -11 -16 -30 2 -23 8 3 15
1 15 -4 0 -6 -4 -10 -10 -10 -5 0 -14 -10 -21 -22 -10 -18 -9 -20 7 -14 16 6
16 4 -2 -16 -12 -13 -20 -29 -18 -36 1 -7 0 -8 -3 -2 -3 7 -14 3 -29 -11 l-24
-23 -16 23 c-15 21 -17 21 -30 4 -7 -10 -14 -13 -14 -7 0 9 15 25 62 62 13 10
19 10 32 -4 10 -9 20 -14 23 -10 3 3 -5 15 -18 27 -17 14 -19 19 -7 15 17 -5
32 9 33 29 0 15 47 75 58 75 6 0 2 -10 -9 -22z m8 -30 c-7 -7 -12 -8 -12 -2 0
14 12 26 19 19 2 -3 -1 -11 -7 -17z m225 -10 c-3 -8 -6 -5 -6 6 -1 11 2 17 5
13 3 -3 4 -12 1 -19z m-116 -32 c-9 -11 -9 -16 1 -22 7 -4 10 -4 6 1 -8 8 32
49 40 41 9 -10 -54 -76 -67 -71 -8 3 -27 -7 -43 -21 -49 -48 -40 -20 14 39 28
31 54 55 56 52 3 -2 -1 -11 -7 -19z m-41 10 c0 -2 -8 -10 -17 -17 -16 -13 -17
-12 -4 4 13 16 21 21 21 13z m177 -73 c-9 -9 -20 -13 -24 -9 -4 4 1 14 11 22
25 18 35 8 13 -13z m-229 -51 c2 -7 -2 -10 -12 -6 -13 5 -15 2 -9 -12 6 -17 5
-17 -10 -5 -13 11 -15 17 -6 28 13 15 31 13 37 -5z m849 -48 c-3 -3 -12 -4
-19 -1 -8 3 -5 6 6 6 11 1 17 -2 13 -5z m-1080 -86 c-3 -8 -6 -5 -6 6 -1 11 2
17 5 13 3 -3 4 -12 1 -19z m659 -49 c11 -1 5 -6 -15 -12 -26 -8 -36 -8 -39 1
-2 7 -10 12 -18 12 -12 0 -12 -4 -2 -20 10 -16 19 -19 48 -14 49 9 35 -1 -26
-19 l-50 -15 -11 29 c-11 28 -10 30 30 48 35 16 44 16 53 5 6 -8 20 -14 30
-15z m-122 -55 c10 -25 -1 -29 -14 -5 -6 12 -7 21 -1 21 5 0 12 -7 15 -16z
m-654 3 c0 -2 -12 -14 -27 -28 l-28 -24 24 28 c23 25 31 32 31 24z m765 -16
c-8 -14 -25 -14 -25 0 0 5 5 7 10 4 6 -3 10 -1 10 6 0 7 3 10 6 6 3 -3 3 -10
-1 -16z m-8 -32 c-9 -6 -15 -14 -12 -18 2 -5 -8 -11 -23 -14 -25 -5 -41 6 -42
28 0 5 5 4 12 -3 16 -16 38 -15 38 1 0 7 10 13 23 14 19 2 20 1 4 -8z m-817
-15 c0 -8 -5 -12 -10 -9 -6 4 -8 11 -5 16 9 14 15 11 15 -7z m864 -10 c3 -8 2
-12 -4 -9 -6 3 -10 1 -10 -5 0 -7 -5 -6 -14 2 -12 11 -11 14 3 20 9 4 17 7 17
7 1 1 5 -6 8 -15z m-891 -14 c3 -11 2 -22 -2 -24 -4 -3 -8 6 -9 20 -2 29 4 31
11 4z m905 -37 c-10 -2 -26 -2 -35 0 -10 3 -2 5 17 5 19 0 27 -2 18 -5z m-51
-105 c-3 -8 -6 -5 -6 6 -1 11 2 17 5 13 3 -3 4 -12 1 -19z m63 12 c-36 -11
-50 -11 -50 0 0 6 17 10 38 9 33 -1 34 -2 12 -9z m-1145 -30 c-10 -11 -23 -20
-28 -20 -6 0 -2 9 8 20 10 11 23 20 28 20 6 0 2 -9 -8 -20z m1145 0 c0 -5 -10
-10 -22 -10 -13 0 -41 -3 -63 -6 -28 -5 -37 -3 -30 4 6 6 30 12 55 15 25 2 48
4 53 5 4 1 7 -2 7 -8z m-40 -38 c-8 -2 -21 -12 -28 -21 -12 -14 -13 -14 -10 4
3 21 27 36 43 27 5 -3 2 -8 -5 -10z m55 8 c3 -5 1 -10 -4 -10 -6 0 -11 5 -11
10 0 6 2 10 4 10 3 0 8 -4 11 -10z m-1067 -31 c-3 -8 -7 -3 -11 10 -4 17 -3
21 5 13 5 -5 8 -16 6 -23z m1037 1 c3 -6 -4 -10 -17 -10 -18 0 -20 2 -8 10 19
12 18 12 25 0z m-1055 -45 c0 -5 -5 -3 -10 5 -5 8 -10 20 -10 25 0 6 5 3 10
-5 5 -8 10 -19 10 -25z m567 3 c-3 -8 -6 -5 -6 6 -1 11 2 17 5 13 3 -3 4 -12
1 -19z m-637 2 c0 -5 -4 -10 -10 -10 -5 0 -10 5 -10 10 0 6 5 10 10 10 6 0 10
-4 10 -10z m-113 -42 c-3 -8 -6 -5 -6 6 -1 11 2 17 5 13 3 -3 4 -12 1 -19z
m83 18 c0 -3 -4 -8 -10 -11 -5 -3 -10 -1 -10 4 0 6 5 11 10 11 6 0 10 -2 10
-4z m-35 -37 c-10 -15 7 -10 29 8 15 13 14 10 -3 -10 -18 -20 -27 -24 -33 -15
-11 18 -10 40 2 33 6 -4 8 -11 5 -16z m-96 -65 c4 3 8 -4 8 -15 1 -10 -3 -19
-8 -19 -6 0 -8 4 -4 9 3 5 1 12 -5 16 -5 3 -9 14 -9 23 1 15 2 15 6 -1 2 -9 8
-15 12 -13z m93 12 c8 5 0 -3 -16 -18 -34 -29 -47 -28 -45 5 1 18 2 19 6 4 6
-24 29 -16 25 9 -2 15 -1 16 7 5 6 -10 14 -12 23 -5z"/>
<path d="M3241 1337 c-6 -6 -11 -17 -11 -23 0 -21 17 -24 33 -6 12 14 13 19 2
29 -9 8 -15 9 -24 0z m19 -17 c0 -5 -4 -10 -10 -10 -5 0 -10 5 -10 10 0 6 5
10 10 10 6 0 10 -4 10 -10z"/>
<path d="M3761 1094 c0 -11 3 -14 6 -6 3 7 2 16 -1 19 -3 4 -6 -2 -5 -13z"/>
<path d="M3700 1073 c0 -5 5 -15 10 -23 8 -12 10 -11 10 8 0 12 -4 22 -10 22
-5 0 -10 -3 -10 -7z"/>
<path d="M1923 2886 c3 -8 1 -17 -6 -20 -8 -3 -8 -5 -1 -5 6 -1 17 5 23 13 9
11 8 15 -5 20 -11 4 -15 2 -11 -8z"/>
<path d="M1860 2876 c0 -2 7 -7 16 -10 8 -3 12 -2 9 4 -6 10 -25 14 -25 6z"/>
<path d="M1930 2843 c1 -14 30 -47 36 -41 3 4 -4 16 -15 27 -12 12 -21 18 -21
14z"/>
<path d="M2155 2740 c-8 -13 14 -42 26 -34 5 3 9 11 8 17 0 9 -2 8 -6 -1 -2
-6 -9 -9 -14 -6 -6 3 -5 11 2 20 7 9 8 14 1 14 -6 0 -14 -5 -17 -10z"/>
<path d="M2325 2730 c3 -5 8 -10 11 -10 2 0 4 5 4 10 0 6 -5 10 -11 10 -5 0
-7 -4 -4 -10z"/>
<path d="M2180 2650 c0 -5 5 -10 11 -10 5 0 7 5 4 10 -3 6 -8 10 -11 10 -2 0
-4 -4 -4 -10z"/>
<path d="M2405 2133 c47 -10 49 -16 10 -29 l-40 -12 38 -1 c20 -1 37 -5 37
-11 0 -5 9 -10 20 -10 11 0 20 -5 20 -11 0 -5 -4 -7 -10 -4 -5 3 -17 2 -27 -3
-14 -8 -12 -12 13 -26 l29 -17 -37 4 c-21 1 -38 -1 -38 -5 0 -4 28 -8 63 -9
44 0 56 -3 42 -9 -21 -9 -112 -90 -101 -90 4 0 18 7 31 16 23 15 25 15 31 0 4
-11 19 -16 46 -16 30 0 46 -7 68 -28 24 -25 27 -34 23 -68 -3 -21 -11 -54 -19
-73 -8 -18 -14 -41 -14 -50 0 -13 -7 -16 -35 -13 -43 5 -45 -3 -5 -23 28 -14
39 -43 24 -58 -4 -4 -19 2 -34 13 -16 11 -42 20 -58 20 -17 0 -32 5 -34 12 -2
6 -10 8 -16 4 -8 -4 -12 -35 -12 -82 0 -48 4 -73 10 -69 6 3 10 31 10 61 0 52
1 54 28 54 32 0 72 -25 72 -45 0 -7 4 -15 10 -17 16 -5 -7 -70 -48 -134 -62
-95 -132 -150 -244 -190 -27 -9 -48 -23 -48 -30 0 -7 -10 -16 -21 -19 -17 -6
-19 -9 -8 -16 9 -6 10 -12 4 -16 -6 -5 -18 -20 -27 -35 -10 -14 -33 -32 -53
-39 -32 -12 -49 -39 -25 -39 6 0 10 4 10 9 0 10 31 30 83 53 15 7 27 16 27 20
0 4 7 5 16 1 13 -5 15 1 12 42 l-3 48 52 12 c28 7 63 19 77 29 30 19 86 19 79
0 -3 -8 9 -15 31 -19 56 -11 116 33 116 83 -1 40 64 302 72 290 5 -9 8 -8 8 5
0 11 9 32 20 47 11 16 18 35 14 43 -3 9 4 21 18 31 19 14 20 16 4 16 -12 0
-16 5 -12 15 3 8 1 15 -4 15 -10 0 -17 -22 -23 -75 -2 -16 -4 12 -3 62 1 51 4
93 9 93 4 0 7 5 7 10 0 6 -7 10 -15 10 -8 0 -15 7 -15 15 0 9 6 12 17 8 13 -5
15 -2 10 11 -4 10 -7 20 -7 22 0 3 -5 2 -12 -2 -6 -4 -8 -3 -5 3 4 6 -5 23
-18 39 -14 16 -25 34 -25 40 0 16 -65 75 -74 67 -4 -4 -4 0 -1 8 8 21 -82 69
-126 68 -20 -1 -26 -3 -14 -6z"/>
<path d="M231 2074 c0 -11 3 -14 6 -6 3 7 2 16 -1 19 -3 4 -6 -2 -5 -13z"/>
<path d="M18 1832 c-12 -2 -18 -13 -18 -32 l0 -28 128 5 c70 3 129 7 131 9 2
2 1 10 -2 19 -5 11 -23 15 -79 15 -40 0 -89 4 -108 8 -19 5 -43 6 -52 4z"/>
<path d="M3180 1805 c0 -18 -6 -29 -20 -32 -11 -3 -20 -11 -20 -19 0 -8 -6
-11 -15 -8 -9 4 -15 0 -15 -10 0 -10 -9 -16 -25 -16 -14 0 -25 -4 -25 -9 0 -5
-10 -11 -21 -14 l-21 -6 20 20 c12 10 26 19 32 19 5 0 10 4 10 9 0 12 -100
-15 -117 -31 -16 -17 -22 -91 -11 -142 8 -34 6 -42 -14 -64 l-23 -25 39 6 c21
3 46 13 56 22 12 11 26 14 44 9 31 -7 34 6 6 24 -11 7 -20 8 -20 2 0 -5 -7 -7
-15 -4 -8 4 -15 12 -15 20 0 7 -7 17 -16 22 -9 5 -14 15 -12 23 3 8 1 22 -4
32 -14 28 17 46 80 47 50 0 52 -1 40 -21 -13 -21 -45 -22 -93 -5 -20 8 -20 7
-1 -8 25 -20 65 -20 102 -1 16 8 25 15 19 15 -10 0 35 39 46 40 12 0 33 -56
35 -94 1 -32 -4 -46 -27 -69 -29 -28 -38 -57 -19 -57 6 0 10 5 10 11 0 5 5 7
10 4 6 -3 10 -1 10 5 0 6 4 9 9 6 13 -8 34 90 33 154 -1 72 -4 92 -19 108 -7
7 -13 22 -13 32 0 10 -4 22 -10 25 -6 4 -10 -5 -10 -20z m21 -72 c-8 -15 -10
-15 -11 -2 0 17 10 32 18 25 2 -3 -1 -13 -7 -23z m-209 -198 c-12 -22 -27 -2
-18 22 5 12 10 13 17 6 7 -7 8 -17 1 -28z"/>
<path d="M2760 1740 c-13 -9 -13 -10 0 -10 8 0 22 5 30 10 13 9 13 10 0 10 -8
0 -22 -5 -30 -10z"/>
<path d="M2274 1699 c21 -11 41 -29 43 -40 6 -21 11 -23 31 -10 22 14 -26 57
-73 65 l-40 6 39 -21z"/>
<path d="M2756 1711 c-51 -8 -57 -27 -10 -28 20 -1 57 -4 81 -8 39 -6 44 -4
41 11 -1 10 -12 18 -23 19 -11 2 -27 5 -35 7 -8 3 -33 2 -54 -1z"/>
<path d="M0 1662 c0 -21 4 -21 130 -19 96 1 130 5 130 15 0 9 -23 12 -84 12
-46 0 -104 3 -130 6 -42 6 -46 5 -46 -14z"/>
<path d="M376 1661 c-10 -16 15 -374 27 -386 6 -6 7 59 2 185 -6 182 -13 228
-29 201z"/>
<path d="M1426 1651 c-9 -14 6 -191 15 -191 12 0 11 187 0 195 -5 3 -12 1 -15
-4z"/>
<path d="M2817 1643 c-4 -3 -24 -9 -44 -13 l-38 -8 35 -1 c19 0 44 6 54 14 11
8 15 15 10 15 -6 0 -14 -3 -17 -7z"/>
<path d="M2777 1532 c-19 -20 -23 -37 -7 -27 10 6 33 45 27 45 -2 0 -11 -8
-20 -18z"/>
<path d="M1761 1525 c-5 -5 -7 -20 -6 -32 1 -12 -2 -20 -7 -17 -4 3 -8 -2 -8
-11 0 -9 5 -13 10 -10 6 3 10 2 10 -4 0 -5 -6 -12 -12 -14 -8 -3 -6 -6 5 -6
18 -1 24 -21 6 -21 -6 0 -9 -7 -5 -15 3 -9 0 -15 -10 -15 -8 0 -12 -5 -9 -10
5 -8 11 -7 21 1 7 6 11 15 8 20 -3 5 -1 9 5 9 19 0 17 -25 -3 -43 l-21 -18 22
10 c32 16 33 15 33 -30 0 -38 -1 -40 -17 -28 -17 13 -17 12 -2 -6 13 -17 14
-25 5 -48 -7 -15 -16 -24 -20 -20 -4 5 -6 1 -4 -7 2 -8 -2 -14 -9 -13 -7 2
-10 -3 -7 -11 3 -7 -9 -25 -26 -40 -17 -14 -26 -26 -20 -26 9 0 10 -3 1 -13
-6 -8 -8 -17 -4 -20 14 -15 29 -5 48 31 10 20 25 44 31 52 7 8 22 41 34 73 18
47 20 63 11 89 -17 48 -14 54 35 87 51 35 80 41 69 14 -36 -88 -38 -101 -28
-134 l11 -34 1 50 c1 28 8 63 16 79 21 41 20 88 -2 84 -12 -2 -18 3 -17 13 1
12 -4 15 -20 11 -18 -5 -19 -3 -8 10 10 13 10 17 -5 22 -10 4 -14 4 -10 0 4
-4 2 -13 -4 -20 -7 -9 -4 -17 13 -28 12 -9 19 -16 14 -16 -4 0 -18 8 -31 19
-19 14 -21 21 -12 31 10 10 7 11 -12 5 -15 -4 -21 -3 -17 3 8 13 -43 10 -53
-3z m69 -41 c0 -3 -13 4 -30 16 -16 12 -30 24 -30 26 0 3 14 -4 30 -16 17 -12
30 -24 30 -26z"/>
<path d="M2167 1476 c12 -16 21 -21 28 -15 7 7 3 15 -9 25 -30 22 -39 17 -19
-10z"/>
<path d="M2390 1449 c-19 -10 -28 -19 -20 -19 8 -1 23 -3 33 -5 12 -2 17 3 17
18 0 18 2 19 10 7 6 -9 10 -10 10 -3 0 21 -14 22 -50 2z"/>
<path d="M2975 1425 l-70 -24 50 -2 c60 -2 52 -3 95 13 46 17 47 18 30 28 -20
13 -23 12 -105 -15z"/>
<path d="M2770 1429 c0 -6 6 -9 13 -6 6 2 24 -2 40 -10 25 -13 27 -12 27 7 0
17 -6 20 -40 20 -22 0 -40 -5 -40 -11z"/>
<path d="M2651 1414 c0 -11 3 -14 6 -6 3 7 2 16 -1 19 -3 4 -6 -2 -5 -13z"/>
<path d="M2290 1411 c0 -6 -7 -11 -15 -11 -9 0 -12 -6 -8 -16 3 -8 12 -13 20
-10 8 3 11 1 8 -4 -11 -18 45 -23 64 -6 23 21 35 21 27 0 -5 -14 -4 -15 8 -5
16 13 11 41 -8 42 -13 1 -32 4 -68 14 -18 5 -28 3 -28 -4z m25 -11 c3 -5 1
-10 -4 -10 -6 0 -11 5 -11 10 0 6 2 10 4 10 3 0 8 -4 11 -10z"/>
<path d="M2868 1403 c6 -2 18 -2 25 0 6 3 1 5 -13 5 -14 0 -19 -2 -12 -5z"/>
<path d="M2650 1368 c0 -19 2 -20 10 -8 13 19 13 30 0 30 -5 0 -10 -10 -10
-22z"/>
<path d="M1506 1341 c-4 -7 -5 -15 -2 -18 9 -9 19 4 14 18 -4 11 -6 11 -12 0z"/>
<path d="M1775 1330 c-3 -5 -1 -10 4 -10 6 0 11 5 11 10 0 6 -2 10 -4 10 -3 0
-8 -4 -11 -10z"/>
<path d="M2650 1320 c0 -11 6 -20 13 -20 8 0 9 -3 1 -8 -6 -4 -14 -25 -17 -46
-4 -23 -18 -51 -33 -67 -29 -30 -47 -32 -23 -2 8 9 9 14 2 10 -6 -4 -13 -3
-15 1 -1 5 -16 4 -31 -3 l-28 -11 51 -32 c28 -18 56 -32 61 -32 5 0 14 -10 20
-22 l10 -23 -5 23 c-3 18 -1 22 11 18 8 -3 19 -6 23 -6 5 0 14 -9 20 -20 6
-11 7 -20 3 -19 -4 1 -19 1 -32 0 -23 -1 -23 -2 -8 -19 9 -10 30 -45 47 -77
27 -54 30 -57 30 -30 0 17 -4 45 -9 63 -8 26 -7 34 4 38 17 7 -5 42 -70 113
-22 25 -33 40 -25 34 16 -11 137 -53 154 -53 6 0 0 7 -13 16 -21 15 -58 86
-67 128 -4 24 -43 66 -61 66 -7 0 -13 -9 -13 -20z"/>
<path d="M1504 1296 c-3 -8 0 -24 6 -35 6 -12 8 -26 5 -31 -4 -6 -3 -9 2 -8 4
1 22 -11 39 -27 77 -73 85 -79 94 -65 6 10 10 7 16 -14 5 -19 10 -24 17 -17 8
8 8 14 -1 23 -18 18 -14 30 8 23 12 -4 20 -2 20 5 0 8 -10 10 -25 8 -14 -3
-25 -1 -25 3 0 5 4 9 8 9 5 0 17 7 28 15 18 14 17 14 -8 5 -23 -8 -28 -7 -28
5 0 8 -5 15 -11 15 -6 0 -8 -9 -4 -22 6 -22 5 -22 -9 -4 -8 10 -19 15 -25 11
-6 -3 -11 -2 -11 4 0 5 14 12 30 16 17 4 30 11 30 16 0 6 -8 6 -19 -1 -25 -13
-54 -13 -46 0 3 5 21 12 40 16 20 3 38 11 42 17 4 6 0 8 -10 4 -9 -3 -20 -1
-23 5 -5 8 -10 5 -15 -8 -7 -18 -8 -18 -9 1 -1 20 -1 20 -9 0 -6 -14 -19 -21
-42 -23 l-34 -1 30 13 30 14 -30 2 c-17 1 -23 4 -13 7 14 3 15 7 5 18 -9 9
-14 10 -19 1 -6 -8 -8 -8 -8 2 0 17 -19 15 -26 -2z"/>
<path d="M3500 1292 c0 -4 7 -18 16 -30 14 -20 14 -24 -4 -47 -11 -13 -22 -22
-25 -18 -3 3 0 12 8 20 8 8 15 20 15 26 0 19 -18 42 -26 34 -4 -3 -1 -15 7
-24 13 -16 12 -17 -3 -5 -14 11 -20 8 -41 -23 -21 -31 -26 -34 -34 -20 -15 26
-36 -6 -27 -40 l7 -27 25 32 c25 32 26 33 34 10 10 -26 1 -41 -11 -21 -7 10
-13 7 -27 -12 l-19 -25 -16 25 -17 25 -17 -26 -18 -27 -17 26 -17 26 -27 -41
c-14 -22 -23 -40 -18 -40 4 0 16 14 27 32 l19 32 9 -29 c13 -39 16 -42 27 -25
7 11 11 11 24 1 18 -15 21 -31 6 -31 -5 0 -10 8 -10 17 0 12 -3 14 -10 7 -11
-11 -4 -44 10 -44 4 0 15 10 26 21 14 16 15 23 7 26 -7 3 -13 9 -13 15 0 7 5
6 14 -1 11 -9 18 -7 33 12 17 22 21 23 38 11 16 -12 22 -11 42 8 13 12 23 26
23 32 -1 6 -11 -2 -24 -18 -14 -16 -26 -24 -30 -18 -3 6 -2 14 4 17 8 5 7 12
-2 22 -11 14 -10 15 9 9 16 -5 26 0 42 20 14 18 26 24 38 20 11 -4 8 3 -9 19
-16 14 -28 32 -28 40 0 8 -4 15 -10 15 -5 0 -10 -3 -10 -8z m-30 -77 c-7 -9
-15 -13 -18 -10 -3 2 1 11 8 20 7 9 15 13 18 10 3 -2 -1 -11 -8 -20z m-65 -25
c3 -5 1 -10 -4 -10 -6 0 -11 5 -11 10 0 6 2 10 4 10 3 0 8 -4 11 -10z"/>
<path d="M580 1271 l-25 -8 25 -4 25 -4 -23 -13 c-31 -18 -82 -18 -93 -1 -6
10 -9 5 -9 -16 0 -26 -4 -31 -22 -30 -13 0 -29 4 -36 8 -7 5 -14 2 -18 -7 -8
-21 -52 -21 -56 0 -3 14 -7 13 -29 -5 -31 -24 -47 -16 -22 11 20 22 6 24 -25
2 -20 -14 -22 -14 -22 0 0 9 -7 16 -15 16 -8 0 -15 -4 -15 -9 0 -5 -20 -14
-45 -20 -30 -7 -45 -17 -45 -27 0 -11 -6 -15 -20 -11 -11 3 -30 -3 -44 -14
-14 -11 -28 -19 -33 -18 -30 5 -33 -3 -33 -96 0 -69 3 -95 13 -95 9 0 9 -2 -1
-8 -8 -6 -12 -28 -10 -65 1 -30 6 -53 10 -51 4 3 8 0 8 -5 0 -6 -4 -11 -10
-11 -5 0 -10 -8 -10 -18 0 -13 7 -18 22 -17 16 2 22 8 21 22 -1 11 4 20 12 20
11 0 13 -8 8 -26 -8 -34 -22 -51 -42 -51 -14 0 -14 2 -1 10 13 8 13 10 -1 10
-12 0 -16 -11 -17 -44 l-2 -45 55 2 c30 2 55 -1 55 -5 0 -5 5 -8 11 -8 5 0 7
5 4 10 -3 6 2 18 11 28 17 16 17 16 11 -7 -9 -38 10 -10 21 29 7 24 10 28 11
13 1 -15 7 -21 21 -20 11 1 22 7 24 13 3 7 -3 10 -15 7 -10 -3 -19 0 -19 6 0
6 7 11 15 11 8 0 15 6 15 14 0 8 7 16 15 20 8 3 15 1 15 -4 0 -6 -4 -10 -8
-10 -5 0 -8 -16 -8 -35 1 -19 4 -35 7 -35 12 0 19 29 12 48 -6 15 -5 15 10 4
9 -8 22 -10 29 -6 10 6 9 3 -1 -9 -11 -14 -11 -20 -1 -32 7 -8 16 -13 20 -10
5 3 12 0 16 -6 4 -8 3 -9 -4 -5 -7 4 -12 2 -12 -3 0 -6 7 -11 16 -11 8 0 13
-4 9 -9 -3 -5 -1 -13 5 -16 7 -4 9 3 6 22 -2 15 -5 40 -5 55 -1 21 -12 33 -53
58 -29 18 -70 35 -93 38 -53 6 -70 19 -53 41 11 14 11 14 -3 4 -9 -7 -19 -10
-22 -6 -4 3 -7 2 -7 -3 0 -6 5 -15 11 -21 8 -8 8 -13 0 -17 -6 -4 -11 -2 -11
5 0 7 -7 4 -15 -7 -12 -16 -14 -16 -15 -3 0 23 -26 44 -33 27 -4 -11 -6 -10
-6 0 -1 7 -5 11 -10 8 -18 -12 -18 42 1 58 10 9 18 11 18 5 0 -8 5 -8 15 1 8
7 13 16 10 20 -7 11 5 40 17 40 5 0 6 -5 3 -11 -4 -6 0 -9 11 -7 12 2 23 -7
32 -24 7 -16 20 -28 28 -28 8 0 12 -4 9 -10 -3 -6 1 -7 9 -4 9 3 16 1 16 -6 0
-6 4 -8 10 -5 5 3 10 -1 10 -9 0 -10 -6 -13 -17 -9 -11 4 -14 3 -9 -6 5 -7 18
-10 31 -7 16 4 25 1 29 -10 4 -10 12 -14 23 -10 10 4 14 4 11 0 -7 -6 33 -44
46 -44 3 0 6 13 6 29 0 20 8 35 22 45 28 20 7 20 -47 1 -47 -17 -55 -18 -55
-6 0 5 15 15 33 21 92 36 132 48 139 44 5 -3 8 -1 8 4 0 6 9 8 20 5 14 -4 20
0 20 11 0 19 -21 21 -37 5 -18 -18 -46 -3 -35 17 11 20 66 40 132 49 l48 7
-20 23 c-22 26 -53 23 -71 -6 -7 -11 -17 -19 -24 -19 -23 0 -25 22 -3 45 20
22 21 25 6 31 -19 7 -21 24 -3 48 13 18 15 18 39 2 20 -13 41 -16 99 -11 46 3
85 1 102 -6 25 -11 31 -9 61 20 17 17 37 31 44 31 6 0 9 6 7 13 -6 14 31 40
45 32 14 -9 12 -37 -5 -59 -19 -25 -19 -60 -1 -75 11 -9 16 -2 26 36 7 27 14
64 17 83 3 19 9 37 14 38 6 2 5 10 -2 18 -10 13 -14 12 -30 -2 -11 -10 -19
-13 -19 -8 0 14 -53 10 -58 -4 -5 -15 -92 -3 -110 15 -7 7 -18 13 -23 13 -5 0
-9 7 -9 15 0 16 -45 19 -90 6z m55 -41 c-3 -5 -12 -10 -18 -10 -7 0 -6 4 3 10
19 12 23 12 15 0z m-574 -307 c-10 -17 -10 -16 -11 3 0 23 13 41 18 25 2 -6
-1 -18 -7 -28z m139 -154 c0 -5 -4 -8 -9 -6 -5 1 -17 -7 -25 -18 -15 -20 -15
-19 -16 6 0 14 3 28 6 31 8 8 44 -3 44 -13z m-94 -14 c-5 -18 -3 -23 8 -19 8
3 12 14 10 27 -4 21 -4 21 5 2 5 -11 10 -29 10 -40 1 -17 -1 -17 -9 -5 -10 16
-13 8 -11 -26 2 -15 -5 -23 -21 -28 -35 -9 -76 -7 -83 4 -3 6 1 10 9 10 22 0
20 20 -1 21 -14 0 -15 2 -3 6 8 3 23 13 33 21 16 14 19 14 33 -4 8 -10 12 -13
9 -6 -7 14 2 62 11 62 4 0 3 -11 0 -25z"/>
<path d="M66 707 c3 -10 9 -15 12 -12 3 3 0 11 -7 18 -10 9 -11 8 -5 -6z"/>
<path d="M1032 1253 c-11 -27 -8 -146 3 -150 6 -2 11 19 11 49 1 29 5 68 9 86
8 35 -10 47 -23 15z"/>
<path d="M1080 1215 c-6 -31 -9 -61 -7 -68 6 -15 11 1 24 71 13 70 -2 67 -17
-3z"/>
<path d="M1832 1237 c-12 -13 -22 -32 -21 -43 0 -14 2 -15 6 -4 3 8 20 27 36
43 20 17 25 27 16 27 -9 0 -25 -10 -37 -23z"/>
<path d="M973 1234 c-10 -27 6 -137 23 -154 14 -14 15 -12 7 15 -4 17 -7 58
-6 93 3 59 -10 83 -24 46z"/>
<path d="M1701 1234 c0 -11 3 -14 6 -6 3 7 2 16 -1 19 -3 4 -6 -2 -5 -13z"/>
<path d="M3675 1240 c-3 -5 -2 -10 4 -10 5 0 13 5 16 10 3 6 2 10 -4 10 -5 0
-13 -4 -16 -10z"/>
<path d="M1883 1205 c-30 -30 -31 -34 -21 -69 13 -42 30 -28 18 15 -7 22 -5
27 6 22 9 -3 14 1 14 12 0 9 5 13 10 10 6 -4 10 5 10 19 0 14 -1 25 -2 25 -2
-1 -17 -16 -35 -34z"/>
<path d="M1670 1214 c0 -8 5 -12 10 -9 6 4 8 11 5 16 -9 14 -15 11 -15 -7z"/>
<path d="M3289 1203 c-13 -16 -12 -17 4 -4 9 7 17 15 17 17 0 8 -8 3 -21 -13z"/>
<path d="M3314 1177 c3 -10 6 -24 6 -30 0 -8 4 -7 12 1 10 10 8 16 -6 30 -18
16 -19 16 -12 -1z"/>
<path d="M3579 1173 c-13 -16 -12 -17 4 -4 16 13 21 21 13 21 -2 0 -10 -8 -17
-17z"/>
<path d="M2240 1176 c0 -2 7 -7 16 -10 8 -3 12 -2 9 4 -6 10 -25 14 -25 6z"/>
<path d="M3060 1166 c0 -2 7 -9 15 -16 13 -11 14 -10 9 4 -5 14 -24 23 -24 12z"/>
<path d="M3619 1143 l-24 -28 28 24 c15 14 27 26 27 28 0 8 -8 1 -31 -24z"/>
<path d="M1837 1153 c-4 -3 -7 -18 -6 -32 1 -26 1 -25 10 3 9 31 7 41 -4 29z"/>
<path d="M3047 1130 c3 -11 9 -17 15 -14 5 3 4 12 -3 20 -16 19 -18 18 -12 -6z"/>
<path d="M1600 1130 c0 -5 5 -10 11 -10 5 0 7 5 4 10 -3 6 -8 10 -11 10 -2 0
-4 -4 -4 -10z"/>
<path d="M947 1123 c-12 -12 -7 -50 8 -63 12 -10 13 -7 5 21 -5 17 -7 36 -4
40 6 11 0 12 -9 2z"/>
<path d="M3225 1120 c3 -5 8 -10 11 -10 2 0 4 5 4 10 0 6 -5 10 -11 10 -5 0
-7 -4 -4 -10z"/>
<path d="M3430 1122 c0 -5 7 -15 15 -22 8 -7 15 -8 15 -2 0 5 -7 15 -15 22 -8
7 -15 8 -15 2z"/>
<path d="M2986 1099 c-15 -12 -25 -23 -23 -26 3 -2 17 7 32 21 34 31 28 34 -9
5z"/>
<path d="M3287 1113 c-8 -13 2 -43 14 -43 10 0 10 8 0 34 -5 12 -10 16 -14 9z"/>
<path d="M3567 1109 c15 -18 8 -30 -13 -22 -10 4 -12 0 -8 -11 8 -21 21 -20
33 3 8 14 7 22 -7 32 -15 12 -16 12 -5 -2z"/>
<path d="M786 1091 c-11 -12 -14 -21 -7 -26 15 -9 28 1 34 25 6 25 -5 26 -27
1z"/>
<path d="M1616 1101 c-3 -4 6 -6 19 -3 14 2 25 6 25 8 0 8 -39 4 -44 -5z"/>
<path d="M2124 1094 c-18 -14 -18 -15 4 -4 12 6 22 13 22 15 0 8 -5 6 -26 -11z"/>
<path d="M3030 1100 c0 -5 5 -10 11 -10 5 0 7 5 4 10 -3 6 -8 10 -11 10 -2 0
-4 -4 -4 -10z"/>
<path d="M1250 1099 c0 -3 5 -20 11 -38 12 -34 26 -38 55 -16 18 14 17 15 -10
9 -26 -6 -28 -5 -21 17 4 17 3 20 -3 10 -8 -11 -12 -10 -21 5 -6 11 -11 16
-11 13z"/>
<path d="M1944 1083 c16 -20 36 -23 36 -6 0 4 -3 3 -7 0 -3 -4 -16 1 -27 10
-21 18 -21 18 -2 -4z"/>
<path d="M3212 1080 c13 -20 28 -27 28 -12 0 10 -22 32 -32 32 -5 0 -3 -9 4
-20z"/>
<path d="M3420 1085 c7 -9 15 -13 17 -11 7 7 -7 26 -19 26 -6 0 -6 -6 2 -15z"/>
<path d="M2312 1065 c-17 -37 -14 -45 4 -12 9 16 14 31 11 33 -2 2 -9 -7 -15
-21z"/>
<path d="M3240 1051 c-26 -33 -35 -39 -46 -30 -10 8 -14 8 -14 0 0 -6 5 -11
11 -11 6 0 8 -8 4 -19 -3 -12 0 -21 10 -25 8 -3 15 -12 15 -21 0 -8 4 -15 9
-15 20 0 20 18 1 38 -11 12 -16 24 -10 27 5 3 14 -4 20 -15 6 -11 15 -18 20
-15 6 4 3 17 -6 31 -9 13 -14 28 -10 31 4 4 9 -3 13 -15 7 -29 19 -28 39 3
l17 26 23 -22 23 -21 -6 21 c-3 11 -9 21 -14 21 -5 0 -9 8 -9 17 0 13 -7 10
-31 -13 -22 -20 -28 -23 -19 -8 9 14 10 26 3 38 -9 16 -14 13 -43 -23z"/>
<path d="M904 1069 c-3 -6 -1 -16 5 -22 8 -8 11 -5 11 11 0 24 -5 28 -16 11z"/>
<path d="M1351 1064 c0 -11 3 -14 6 -6 3 7 2 16 -1 19 -3 4 -6 -2 -5 -13z"/>
<path d="M1910 1071 c0 -5 5 -13 10 -16 6 -3 10 -2 10 4 0 5 -4 13 -10 16 -5
3 -10 2 -10 -4z"/>
<path d="M3187 1073 c-7 -10 21 -49 29 -40 3 3 -1 15 -9 27 -8 12 -17 18 -20
13z"/>
<path d="M3379 1048 l-23 -33 25 21 c13 12 31 19 39 17 9 -3 11 -1 5 4 -5 4
-13 12 -16 16 -4 5 -17 -7 -30 -25z"/>
<path d="M1706 1054 c-8 -22 -7 -34 3 -34 12 0 21 39 11 45 -4 3 -11 -2 -14
-11z"/>
<path d="M645 1050 c3 -5 14 -10 23 -10 15 0 15 2 2 10 -20 13 -33 13 -25 0z"/>
<path d="M1960 1045 c0 -2 12 -10 28 -17 22 -11 32 -11 52 -1 14 7 21 13 15
13 -5 1 -29 3 -52 5 -24 2 -43 2 -43 0z"/>
<path d="M2120 1029 c-19 -10 -44 -21 -54 -24 -10 -3 -16 -8 -13 -11 7 -7 92
30 101 45 8 13 10 14 -34 -10z"/>
<path d="M1328 1028 c-3 -7 -18 -12 -34 -11 -25 2 -26 1 -11 -8 18 -10 18 -11
0 -25 -13 -11 -14 -14 -3 -12 8 2 14 -3 13 -9 -2 -8 9 -13 30 -14 29 0 28 -2
-16 -13 -26 -7 -50 -16 -54 -19 -9 -10 12 -8 41 3 21 8 26 6 26 -6 0 -8 -4
-13 -8 -10 -4 2 -14 1 -20 -3 -19 -11 -3 -41 22 -42 21 0 21 0 -1 -9 -13 -5
-23 -12 -23 -15 0 -2 10 -4 23 -2 16 1 21 -3 19 -15 -2 -12 2 -16 13 -12 8 3
15 2 15 -4 0 -6 -6 -13 -12 -15 -7 -3 -4 -6 7 -6 20 -1 55 -41 35 -41 -5 0
-10 5 -10 10 0 6 -5 10 -11 10 -8 0 -8 -5 1 -15 7 -8 22 -15 34 -15 20 0 20
-1 -4 -20 -25 -19 -18 -28 9 -11 9 6 21 2 35 -13 12 -12 29 -26 39 -29 11 -4
21 -16 24 -27 8 -28 21 -25 59 15 30 33 53 47 39 26 -3 -5 0 -13 6 -17 8 -4 9
3 5 27 -7 32 -6 33 9 15 15 -20 20 -11 9 19 -6 14 -13 10 -44 -20 l-38 -37
-13 30 -13 30 -28 -19 c-15 -11 -28 -16 -28 -10 0 6 9 15 20 21 16 8 19 17 14
33 -9 31 -10 31 -36 13 -30 -21 -33 -20 -35 6 -2 18 0 19 7 8 8 -13 14 -10 37
14 l28 28 -26 -16 c-25 -16 -27 -16 -33 0 -5 13 -9 14 -21 4 -8 -6 -20 -10
-27 -7 -8 3 -2 10 15 17 15 7 27 17 27 22 0 11 -28 10 -35 -2 -3 -5 -14 -10
-23 -10 -10 1 -2 9 19 20 19 10 42 27 50 37 13 17 13 17 -7 0 -25 -20 -37 -12
-23 15 10 18 9 18 -11 8 -16 -9 -19 -15 -10 -25 8 -9 8 -15 0 -20 -5 -3 -10 1
-10 9 0 11 -10 16 -27 17 l-28 1 31 9 c17 5 38 17 45 26 12 14 12 16 -1 11
-50 -20 -53 -18 -20 12 19 17 28 30 20 28 -8 -2 -18 -7 -22 -13 -5 -6 -8 -5
-8 3 0 7 -15 13 -37 13 -21 1 -29 4 -18 6 11 2 31 13 45 24 l25 20 -32 -16
c-30 -14 -33 -14 -33 0 0 9 5 13 10 10 6 -3 10 -2 10 4 0 15 -18 23 -22 9z
m-18 -148 c0 -5 -2 -10 -4 -10 -3 0 -8 5 -11 10 -3 6 -1 10 4 10 6 0 11 -4 11
-10z m177 -152 c-3 -8 -6 -5 -6 6 -1 11 2 17 5 13 3 -3 4 -12 1 -19z m25 -60
c-7 -7 -12 -8 -12 -2 0 14 12 26 19 19 2 -3 -1 -11 -7 -17z"/>
<path d="M2930 1015 c-18 -19 -26 -22 -32 -13 -7 10 -8 9 -7 -2 4 -37 -1 -44
-16 -24 -15 20 -18 11 -7 -19 6 -15 15 -10 57 33 27 27 45 50 39 50 -6 0 -21
-11 -34 -25z"/>
<path d="M3149 1013 c-13 -16 -12 -17 4 -4 9 7 17 15 17 17 0 8 -8 3 -21 -13z"/>
<path d="M3405 1020 c3 -5 8 -10 11 -10 2 0 4 5 4 10 0 6 -5 10 -11 10 -5 0
-7 -4 -4 -10z"/>
<path d="M3310 1012 c0 -4 5 -13 12 -20 6 -6 8 -15 4 -19 -4 -4 -11 -1 -16 7
-10 17 -15 13 -52 -43 l-25 -38 -15 32 -15 31 -23 -37 -23 -37 -14 26 c-7 14
-15 26 -18 26 -2 0 -13 -16 -26 -36 -16 -26 -24 -32 -30 -23 -13 22 -17 6 -4
-19 l13 -23 22 36 23 37 13 -23 c14 -26 8 -42 -6 -19 -7 12 -12 12 -22 2 -9
-9 -9 -12 0 -12 7 0 12 -7 12 -15 0 -23 15 -18 30 10 15 29 35 32 48 9 5 -9
14 -14 20 -10 8 5 6 13 -5 26 -9 10 -20 17 -25 14 -4 -3 -5 2 -2 10 5 13 9 12
27 -5 21 -19 22 -19 35 -2 7 10 17 25 22 33 7 12 12 12 31 -5 l23 -20 -17 27
c-20 33 -22 45 -4 29 11 -8 18 -7 30 7 13 14 13 20 3 35 -14 18 -26 22 -26 9z"/>
<path d="M3168 994 c-8 -8 3 -44 13 -44 12 0 11 17 -1 25 -6 4 -8 11 -5 16 7
10 2 12 -7 3z"/>
<path d="M1699 979 c-3 -8 -4 -43 -3 -79 3 -80 -5 -162 -15 -155 -5 2 -6 -7
-3 -20 3 -20 1 -24 -12 -19 -11 4 -16 0 -16 -14 0 -11 6 -23 13 -25 7 -3 5 -6
-5 -6 -9 -1 -24 -11 -32 -23 -14 -19 -16 -19 -22 -5 -9 25 -26 20 -19 -5 4
-16 4 -19 -3 -9 -8 11 -19 7 -56 -21 -25 -20 -42 -38 -39 -42 4 -3 17 4 31 16
22 21 24 22 36 6 12 -16 16 -14 46 17 48 49 60 46 60 -16 0 -45 -2 -50 -17
-44 -14 5 -15 4 -6 -6 10 -10 15 -9 28 1 12 10 19 9 40 -4 24 -16 25 -16 25 6
1 13 7 40 15 62 14 40 13 40 -24 -9 l-23 -30 7 90 c3 50 11 119 17 155 6 36
12 88 15 115 5 48 4 49 -12 30 -10 -12 -15 -14 -12 -5 6 21 -8 59 -14 39z
m-129 -389 c0 -5 -2 -10 -4 -10 -3 0 -8 5 -11 10 -3 6 -1 10 4 10 6 0 11 -4
11 -10z"/>
<path d="M3125 979 c-4 -6 -5 -12 -2 -15 2 -3 7 2 10 11 7 17 1 20 -8 4z"/>
<path d="M780 950 c0 -33 -23 -51 -43 -31 -8 8 -15 6 -25 -11 -9 -15 -11 -16
-8 -5 5 15 2 17 -17 11 -12 -4 -23 -11 -25 -15 -2 -5 -10 -9 -17 -9 -16 0 -26
-23 -16 -38 8 -14 56 -32 84 -32 13 0 31 -9 40 -21 24 -27 38 -21 54 27 l13
39 -5 -38 c-3 -33 -2 -36 11 -22 9 8 12 20 8 26 -4 7 -3 9 3 6 13 -8 83 51 83
70 0 7 -6 10 -13 7 -8 -3 -20 2 -27 11 -7 8 -19 15 -27 15 -8 0 -28 9 -44 21
l-29 20 0 -31z m23 -30 c-3 -11 -7 -20 -9 -20 -2 0 -4 9 -4 20 0 11 4 20 9 20
5 0 7 -9 4 -20z"/>
<path d="M740 960 c18 -12 30 -13 30 -2 0 4 -10 9 -22 9 -18 2 -20 0 -8 -7z"/>
<path d="M1791 955 c0 -5 6 -19 14 -29 8 -11 15 -15 15 -10 0 6 -7 19 -15 30
-8 10 -14 15 -14 9z"/>
<path d="M3144 944 c3 -9 6 -21 6 -27 0 -8 3 -8 10 -1 12 12 3 44 -12 44 -6 0
-7 -7 -4 -16z"/>
<path d="M3430 950 c0 -5 5 -10 11 -10 5 0 7 5 4 10 -3 6 -8 10 -11 10 -2 0
-4 -4 -4 -10z"/>
<path d="M730 946 c0 -2 7 -9 15 -16 9 -7 15 -8 15 -2 0 5 -7 12 -15 16 -8 3
-15 4 -15 2z"/>
<path d="M2799 923 c-13 -16 -12 -17 4 -4 9 7 17 15 17 17 0 8 -8 3 -21 -13z"/>
<path d="M82 918 c2 -6 14 -13 27 -15 27 -4 20 12 -9 20 -13 3 -20 1 -18 -5z"/>
<path d="M3070 916 c0 -9 5 -16 10 -16 6 0 10 4 10 9 0 6 -4 13 -10 16 -5 3
-10 -1 -10 -9z"/>
<path d="M1876 885 c-4 -22 -11 -57 -15 -77 -10 -42 -3 -48 22 -20 19 21 22
52 9 102 l-9 35 -7 -40z"/>
<path d="M3256 882 c-3 -6 -1 -14 5 -17 14 -9 20 -2 10 14 -6 8 -11 9 -15 3z"/>
<path d="M130 870 c0 -5 5 -10 11 -10 5 0 7 5 4 10 -3 6 -8 10 -11 10 -2 0 -4
-4 -4 -10z"/>
<path d="M3566 872 c-2 -4 -1 -14 5 -22 7 -12 9 -10 9 8 0 23 -5 28 -14 14z"/>
<path d="M100 860 c0 -5 5 -10 11 -10 5 0 7 5 4 10 -3 6 -8 10 -11 10 -2 0 -4
-4 -4 -10z"/>
<path d="M1645 860 c-3 -6 1 -7 9 -4 18 7 21 14 7 14 -6 0 -13 -4 -16 -10z"/>
<path d="M3170 856 c0 -7 8 -20 17 -27 15 -12 16 -12 10 4 -4 10 -7 23 -7 28
0 5 -4 9 -10 9 -5 0 -10 -6 -10 -14z"/>
<path d="M3023 841 c-11 -18 -7 -61 6 -61 4 0 14 13 23 28 13 22 14 32 6 40
-16 16 -21 15 -35 -7z m27 -22 c0 -5 -4 -9 -10 -9 -5 0 -10 7 -10 16 0 8 5 12
10 9 6 -3 10 -10 10 -16z"/>
<path d="M1450 824 c0 -14 4 -23 9 -20 5 3 7 15 4 26 -7 28 -13 25 -13 -6z"/>
<path d="M3064 808 c-15 -24 -28 -45 -31 -47 -2 -3 -11 5 -19 18 l-16 23 -26
-36 c-21 -30 -28 -34 -41 -23 -14 10 -14 10 -5 -3 6 -8 13 -22 16 -30 3 -9 14
2 31 30 15 25 27 38 27 30 0 -8 7 -23 14 -33 13 -16 15 -15 35 19 19 32 24 34
38 23 15 -13 16 -11 9 15 -6 26 -5 27 8 13 14 -13 14 -19 1 -43 -12 -23 -15
-25 -21 -11 -3 9 -10 14 -15 11 -14 -8 -11 -18 12 -43 l21 -22 -21 -34 c-11
-19 -17 -35 -13 -35 8 0 52 72 52 84 0 4 -4 4 -10 1 -19 -12 -10 18 20 62 33
48 41 79 12 42 l-19 -22 -7 26 c-9 38 -22 34 -52 -15z"/>
<path d="M3616 842 c-2 -4 5 -14 17 -22 19 -12 21 -11 10 2 -7 8 -10 18 -6 21
3 4 1 7 -5 7 -6 0 -13 -4 -16 -8z"/>
<path d="M1049 833 c0 -5 -2 -16 -4 -25 -2 -10 1 -20 6 -24 5 -3 9 9 9 25 0
17 -2 31 -5 31 -3 0 -5 -3 -6 -7z"/>
<path d="M3361 804 c-6 -15 -9 -29 -7 -32 3 -2 10 8 16 23 14 36 7 43 -9 9z"/>
<path d="M1080 800 c0 -10 -3 -27 -6 -37 -5 -17 -5 -17 6 0 13 20 30 23 30 5
0 -7 4 -19 9 -27 8 -12 12 -12 25 -2 19 16 21 57 4 67 -8 5 -9 1 -5 -12 7 -18
6 -18 -10 1 -23 26 -53 29 -53 5z m60 -46 c0 -8 -4 -12 -10 -9 -5 3 -10 10
-10 16 0 5 5 9 10 9 6 0 10 -7 10 -16z"/>
<path d="M1566 801 c-3 -5 1 -11 9 -14 9 -4 12 -1 8 9 -6 16 -10 17 -17 5z"/>
<path d="M1634 787 c-28 -32 -40 -52 -26 -43 12 7 56 66 49 66 -2 0 -12 -10
-23 -23z"/>
<path d="M3196 793 c-6 -14 -5 -15 5 -6 7 7 10 15 7 18 -3 3 -9 -2 -12 -12z"/>
<path d="M1007 781 c-4 -17 -3 -21 5 -13 5 5 8 16 6 23 -3 8 -7 3 -11 -10z"/>
<path d="M3486 792 c-2 -4 -1 -14 5 -22 7 -12 9 -10 9 8 0 23 -5 28 -14 14z"/>
<path d="M3150 776 c0 -2 7 -9 15 -16 13 -11 14 -10 9 4 -5 14 -24 23 -24 12z"/>
<path d="M3670 765 c0 -8 4 -15 10 -15 5 0 7 7 4 15 -4 8 -8 15 -10 15 -2 0
-4 -7 -4 -15z"/>
<path d="M2630 754 c0 -8 5 -12 10 -9 6 4 8 11 5 16 -9 14 -15 11 -15 -7z"/>
<path d="M3646 757 c3 -10 9 -15 12 -12 3 3 0 11 -7 18 -10 9 -11 8 -5 -6z"/>
<path d="M1171 749 c-1 -9 -12 -28 -26 -43 -13 -14 -20 -26 -15 -26 5 0 18 11
28 25 14 17 23 22 27 14 4 -6 2 -15 -4 -19 -9 -5 -7 -11 5 -21 15 -12 17 -12
12 1 -3 8 2 20 11 27 15 11 15 12 0 13 -9 0 -21 10 -27 23 -7 15 -11 17 -11 6z"/>
<path d="M1520 749 c0 -5 5 -7 10 -4 6 3 10 8 10 11 0 2 -4 4 -10 4 -5 0 -10
-5 -10 -11z"/>
<path d="M3335 749 c-4 -6 -5 -12 -2 -15 2 -3 7 2 10 11 7 17 1 20 -8 4z"/>
<path d="M3595 750 c-3 -5 -1 -10 4 -10 6 0 11 5 11 10 0 6 -2 10 -4 10 -3 0
-8 -4 -11 -10z"/>
<path d="M1646 737 c3 -10 9 -15 12 -12 3 3 0 11 -7 18 -10 9 -11 8 -5 -6z"/>
<path d="M2945 679 l-47 -72 -16 26 -17 25 -23 -34 c-12 -18 -22 -39 -22 -46
0 -6 -7 -3 -15 8 -8 10 -15 14 -15 9 0 -6 5 -16 12 -23 17 -17 2 -28 -17 -12
-16 13 -20 3 -9 -24 10 -26 19 -19 48 34 15 27 31 52 35 55 5 2 16 -10 25 -28
8 -17 16 -26 16 -19 0 6 4 12 10 12 5 0 7 -7 4 -15 -4 -8 -1 -15 5 -15 6 0 11
-8 11 -17 0 -13 3 -14 12 -5 10 10 10 17 0 32 -16 27 -15 39 3 16 7 -10 19
-15 25 -11 8 5 6 13 -6 26 -9 10 -21 16 -25 13 -11 -7 -11 7 0 25 6 9 11 10
15 2 13 -20 27 -12 16 8 -13 24 -13 41 0 21 8 -13 11 -13 22 -1 10 11 10 14 1
18 -7 3 -13 12 -13 21 1 15 2 15 14 -1 20 -25 31 -3 13 24 -14 20 -17 18 -62
-52z"/>
<path d="M3127 742 c-3 -4 3 -13 14 -20 10 -7 19 -8 19 -3 0 13 -28 33 -33 23z"/>
<path d="M490 729 c0 -5 5 -7 10 -4 6 3 10 8 10 11 0 2 -4 4 -10 4 -5 0 -10
-5 -10 -11z"/>
<path d="M1570 721 c0 -24 0 -24 -15 -5 -11 14 -14 15 -15 4 0 -8 4 -21 8 -28
7 -10 12 -8 25 5 11 13 13 23 7 33 -8 12 -10 10 -10 -9z"/>
<path d="M2590 730 c0 -5 5 -10 11 -10 5 0 7 5 4 10 -3 6 -8 10 -11 10 -2 0
-4 -4 -4 -10z"/>
<path d="M3012 678 c-22 -35 -37 -67 -34 -72 2 -5 9 0 15 10 5 11 16 30 24 42
14 23 15 23 28 5 8 -10 15 -13 15 -6 0 6 -4 15 -10 18 -5 3 -10 14 -10 23 1
15 2 15 14 -1 19 -25 31 -3 13 23 -14 20 -16 18 -55 -42z"/>
<path d="M3290 728 c0 -8 7 -21 15 -28 19 -16 19 -1 0 24 -12 16 -15 17 -15 4z"/>
<path d="M750 716 c0 -2 6 -9 13 -15 10 -8 14 -7 14 4 0 8 -6 15 -14 15 -7 0
-13 -2 -13 -4z"/>
<path d="M1060 710 c-9 -6 -10 -10 -3 -10 6 0 15 5 18 10 8 12 4 12 -15 0z"/>
<path d="M618 703 c7 -3 16 -2 19 1 4 3 -2 6 -13 5 -11 0 -14 -3 -6 -6z"/>
<path d="M2910 703 c0 -4 5 -15 10 -23 8 -13 10 -13 10 2 0 9 -4 20 -10 23 -5
3 -10 3 -10 -2z"/>
<path d="M550 696 c0 -2 7 -7 16 -10 8 -3 12 -2 9 4 -6 10 -25 14 -25 6z"/>
<path d="M1208 678 c-14 -20 -17 -21 -33 -8 -17 14 -17 13 -10 -10 4 -14 4
-22 0 -18 -4 3 -20 -5 -36 -19 -30 -27 -38 -46 -16 -38 7 3 27 -8 45 -25 18
-16 37 -30 43 -30 5 0 9 -6 9 -13 0 -14 35 -47 49 -47 5 0 26 19 47 43 21 23
42 41 46 39 11 -3 10 16 -1 23 -5 3 -19 -8 -31 -25 -23 -33 -40 -39 -40 -15 0
14 -4 14 -32 0 l-33 -16 29 25 c26 22 31 23 41 9 11 -14 12 -14 19 2 4 11 2
22 -5 26 -6 4 -8 12 -5 18 13 20 -6 11 -41 -19 -35 -31 -53 -38 -53 -19 0 5 4
8 8 5 5 -3 26 13 48 36 21 22 32 38 24 36 -8 -3 -20 2 -26 10 -10 14 -17 11
-53 -17 -23 -19 -44 -31 -47 -29 -2 3 16 22 41 42 42 35 56 56 36 56 -5 0 -15
-10 -23 -22z m39 -60 c-3 -8 -6 -5 -6 6 -1 11 2 17 5 13 3 -3 4 -12 1 -19z
m-19 -23 c-3 -3 -9 2 -12 12 -6 14 -5 15 5 6 7 -7 10 -15 7 -18z m-33 -14 c-3
-6 -11 -11 -17 -11 -6 0 -6 6 2 15 14 17 26 13 15 -4z"/>
<path d="M3271 697 c-2 -17 20 -47 30 -42 14 9 11 25 -5 25 -8 0 -17 6 -19 13
-3 6 -6 8 -6 4z"/>
<path d="M3680 690 c0 -5 5 -10 11 -10 5 0 7 5 4 10 -3 6 -8 10 -11 10 -2 0
-4 -4 -4 -10z"/>
<path d="M463 683 c4 -3 2 -12 -4 -20 -6 -7 -7 -13 -3 -13 5 0 15 9 22 20 10
17 10 20 -5 20 -9 0 -13 -3 -10 -7z"/>
<path d="M593 683 c4 -3 2 -12 -4 -20 -9 -9 -8 -13 0 -13 6 0 11 2 11 4 0 2 3
11 6 20 4 10 1 16 -7 16 -7 0 -9 -3 -6 -7z"/>
<path d="M747 676 c-4 -10 -1 -13 8 -9 8 3 12 9 9 14 -7 12 -11 11 -17 -5z"/>
<path d="M3741 672 c-14 -27 -12 -35 8 -23 7 5 11 17 9 27 -4 17 -5 17 -17 -4z"/>
<path d="M200 670 c19 -13 30 -13 30 0 0 6 -10 10 -22 10 -19 0 -20 -2 -8 -10z"/>
<path d="M491 666 c-7 -8 -8 -17 -3 -19 4 -3 13 3 20 14 14 22 0 26 -17 5z"/>
<path d="M2541 673 c0 -6 -4 -20 -7 -30 -5 -14 -4 -15 5 -7 7 7 11 20 8 30 -3
11 -5 14 -6 7z"/>
<path d="M2884 664 c3 -9 6 -20 6 -26 0 -6 6 -5 15 2 12 10 13 16 4 26 -16 19
-33 18 -25 -2z"/>
<path d="M540 660 c18 -12 30 -13 30 -2 0 4 -10 9 -22 9 -18 2 -20 0 -8 -7z"/>
<path d="M615 660 c-3 -5 -1 -10 4 -10 6 0 11 5 11 10 0 6 -2 10 -4 10 -3 0
-8 -4 -11 -10z"/>
<path d="M1113 645 c-15 -13 -23 -25 -17 -25 10 0 54 36 54 45 0 10 -9 4 -37
-20z"/>
<path d="M3120 645 c7 -8 17 -15 22 -15 6 0 5 7 -2 15 -7 8 -17 15 -22 15 -6
0 -5 -7 2 -15z"/>
<path d="M3192 644 c10 -10 20 -16 22 -13 3 3 -5 11 -17 18 -21 13 -21 12 -5
-5z"/>
<path d="M160 635 c-7 -9 -11 -17 -9 -20 3 -2 10 5 17 15 14 24 10 26 -8 5z"/>
<path d="M200 635 c6 -8 9 -18 6 -24 -3 -5 1 -11 9 -15 8 -3 17 -1 20 4 4 6 2
10 -3 10 -6 0 -8 8 -5 18 3 13 -2 18 -17 19 -17 2 -19 -1 -10 -12z"/>
<path d="M535 635 c17 -8 38 -14 48 -15 14 0 17 -5 12 -22 -6 -22 -6 -22 9 -4
23 29 20 34 -21 41 -21 4 -47 9 -58 11 -11 2 -6 -3 10 -11z"/>
<path d="M1464 628 c-13 -16 -14 -19 -2 -10 14 11 18 10 27 -5 8 -14 10 -14
11 -3 0 33 -16 41 -36 18z"/>
<path d="M3027 643 c-3 -4 1 -17 9 -28 10 -13 14 -15 14 -4 0 20 -16 43 -23
32z"/>
<path d="M3330 601 c-6 -27 -18 -58 -25 -68 -8 -10 -15 -23 -15 -30 0 -13 25
-12 37 2 5 4 2 5 -6 0 -11 -6 -13 -4 -6 11 4 10 10 29 12 41 3 13 9 20 14 18
4 -3 4 -17 -1 -30 -9 -24 2 -36 15 -15 12 19 12 85 0 103 -11 16 -14 12 -25
-32z m25 9 c3 -5 1 -10 -4 -10 -6 0 -11 5 -11 10 0 6 2 10 4 10 3 0 8 -4 11
-10z"/>
<path d="M45 631 c46 -6 50 -8 51 -34 1 -25 1 -25 -3 -2 -6 37 -38 33 -38 -4
0 -16 3 -27 8 -24 4 2 7 -5 7 -16 0 -12 7 -21 15 -21 8 0 15 5 15 10 0 6 -4
10 -10 10 -5 0 -10 5 -10 10 0 6 6 9 13 8 8 -2 12 9 12 32 l0 35 -55 1 -55 1
50 -6z m32 -53 c-3 -7 -5 -2 -5 12 0 14 2 19 5 13 2 -7 2 -19 0 -25z"/>
<path d="M444 631 c4 -6 15 -11 25 -11 21 0 32 -10 25 -21 -3 -5 -14 -4 -26 2
-15 8 -23 8 -32 -2 -8 -9 -8 -10 2 -5 6 4 12 2 12 -3 0 -6 -6 -11 -12 -11 -7
-1 -2 -7 12 -15 21 -12 22 -14 6 -15 -10 0 -24 -8 -31 -17 -12 -16 -6 -20 64
-43 74 -24 76 -26 58 -43 -16 -16 -18 -17 -15 -1 2 12 -11 22 -51 35 -56 20
-78 19 -42 -1 20 -10 20 -12 5 -27 -15 -16 -15 -18 4 -26 19 -9 20 -11 6 -32
-14 -22 -14 -24 7 -30 12 -4 18 -10 13 -14 -5 -3 -15 -15 -23 -26 -8 -11 6 0
31 25 35 35 42 48 34 59 -9 12 -8 13 6 8 11 -4 25 5 43 29 l26 34 -31 6 c-17
4 -33 11 -36 15 -3 5 -10 6 -16 3 -7 -5 -9 -1 -5 9 4 10 -1 21 -11 27 -16 11
-15 11 1 6 10 -3 23 -6 28 -6 4 0 6 -6 3 -13 -3 -9 9 -18 34 -25 49 -15 74
-16 53 -3 -7 5 -10 14 -7 20 4 6 2 11 -3 11 -6 0 -11 -4 -11 -10 0 -5 -5 -10
-11 -10 -6 0 -9 7 -5 15 4 10 -7 18 -37 27 -54 15 -52 13 -34 42 18 27 22 23
-47 43 -12 3 -16 1 -12 -6z m36 -51 c0 -5 -5 -10 -11 -10 -5 0 -7 5 -4 10 3 6
8 10 11 10 2 0 4 -4 4 -10z m-25 -50 c-3 -5 -11 -10 -16 -10 -6 0 -7 5 -4 10
3 6 11 10 16 10 6 0 7 -4 4 -10z m105 0 c0 -5 -5 -10 -11 -10 -5 0 -7 5 -4 10
3 6 8 10 11 10 2 0 4 -4 4 -10z m-80 -10 c0 -5 -5 -10 -11 -10 -5 0 -7 5 -4
10 3 6 8 10 11 10 2 0 4 -4 4 -10z"/>
<path d="M3241 639 c-1 -4 -8 -23 -16 -43 -9 -21 -11 -36 -5 -36 5 0 10 8 10
18 0 10 5 23 11 29 6 6 9 17 6 25 -3 7 -6 10 -6 7z"/>
<path d="M295 623 c25 -6 44 -23 26 -23 -7 0 -9 -4 -6 -10 4 -6 -5 -10 -21
-10 -35 0 -25 -10 12 -13 22 -2 28 -7 26 -22 -2 -17 -1 -17 7 -5 14 20 15 -4
2 -29 -7 -13 -6 -18 3 -18 9 0 12 12 9 41 -2 23 -4 48 -5 56 -2 20 -28 40 -53
39 l-20 -1 20 -5z"/>
<path d="M3100 621 c0 -5 5 -13 10 -16 6 -3 10 -2 10 4 0 5 -4 13 -10 16 -5 3
-10 2 -10 -4z"/>
<path d="M4 609 c-3 -6 -2 -15 4 -21 6 -6 12 -6 17 3 5 8 4 10 -3 5 -7 -4 -12
-3 -12 3 0 5 6 12 13 14 9 4 9 6 0 6 -6 1 -15 -4 -19 -10z"/>
<path d="M521 598 c-7 -11 -11 -21 -9 -23 7 -6 111 -25 115 -21 3 3 -11 8 -31
12 -30 5 -34 9 -25 20 7 8 9 17 6 21 -4 3 -9 -2 -13 -11 -3 -9 -13 -16 -21
-16 -12 0 -13 3 -4 14 7 8 8 17 3 19 -4 3 -14 -3 -21 -15z"/>
<path d="M626 605 c-9 -26 -7 -32 5 -12 6 10 9 21 6 23 -2 3 -7 -2 -11 -11z"/>
<path d="M655 599 c-4 -6 -5 -12 -2 -15 2 -3 7 2 10 11 7 17 1 20 -8 4z"/>
<path d="M2847 578 c-13 -23 -14 -34 -6 -50 8 -16 13 -17 22 -8 9 10 9 14 0
17 -7 3 -13 12 -13 21 1 15 2 15 14 -1 19 -25 29 -5 13 26 l-13 25 -17 -30z"/>
<path d="M2982 569 c-13 -23 -21 -44 -18 -46 2 -3 10 5 16 17 11 21 12 21 25
3 8 -10 15 -13 15 -6 0 6 -4 15 -10 18 -5 3 -10 13 -10 22 0 13 2 13 16 2 14
-12 16 -11 13 5 -7 34 -24 28 -47 -15z"/>
<path d="M3056 559 c-16 -28 -26 -53 -23 -55 3 -3 15 15 27 41 12 25 26 43 31
40 5 -4 6 1 3 9 -3 9 -7 16 -8 16 -2 0 -15 -23 -30 -51z"/>
<path d="M3260 598 c0 -18 27 -44 37 -34 4 4 -3 16 -15 29 -18 17 -22 18 -22
5z"/>
<path d="M3380 595 c0 -8 2 -15 4 -15 2 0 6 7 10 15 3 8 1 15 -4 15 -6 0 -10
-7 -10 -15z"/>
<path d="M122 580 c0 -14 2 -19 5 -12 2 6 2 18 0 25 -3 6 -5 1 -5 -13z"/>
<path d="M141 584 c0 -11 3 -14 6 -6 3 7 2 16 -1 19 -3 4 -6 -2 -5 -13z"/>
<path d="M1615 590 c-3 -5 3 -10 14 -10 12 0 21 5 21 10 0 6 -6 10 -14 10 -8
0 -18 -4 -21 -10z"/>
<path d="M165 538 c2 -32 -1 -58 -6 -58 -5 0 -9 -7 -9 -16 0 -8 -4 -12 -10 -9
-5 3 -10 2 -10 -3 0 -6 -7 -13 -16 -16 -9 -4 -13 -2 -8 5 5 8 -3 10 -24 7 -21
-3 -33 0 -37 10 -7 19 -7 20 12 25 10 3 0 5 -22 5 -22 0 -32 -2 -23 -5 23 -6
23 -23 1 -24 -12 -1 -10 -4 7 -9 l25 -8 -25 -2 c-14 -1 -19 -4 -11 -7 11 -5
11 -7 0 -15 -9 -6 17 -7 71 -4 65 4 74 3 40 -4 -25 -5 -63 -9 -85 -11 l-40 -2
40 -7 40 -7 -36 -2 -36 -1 0 -152 c0 -91 3 -139 7 -118 l7 35 2 -37 c0 -21 -3
-38 -7 -38 -5 0 -9 -16 -10 -35 -1 -31 2 -35 22 -35 14 0 27 6 29 13 4 8 6 8
6 0 1 -17 351 -19 352 -1 0 7 0 48 -1 91 -1 48 3 84 11 93 9 11 8 14 -5 14
-11 0 -16 9 -17 28 -1 50 -8 137 -12 152 -2 8 -7 30 -11 48 -8 33 -20 42 -29
20 -4 -8 -6 -7 -6 3 -1 26 -24 28 -46 6 -20 -20 -20 -20 7 -13 23 5 27 3 25
-14 -1 -21 -17 -29 -17 -9 0 6 -9 9 -20 6 -11 -3 -20 0 -21 6 0 7 -4 3 -9 -8
-6 -16 -8 -14 -7 13 0 23 3 29 9 20 7 -9 8 -8 4 5 -3 10 -6 21 -6 23 0 3 -5 2
-11 -2 -8 -5 -10 3 -7 24 3 19 0 33 -8 36 -8 3 -11 -7 -9 -32 1 -20 1 -28 -2
-17 -10 47 -25 85 -34 85 -5 0 -9 -7 -9 -16 0 -8 5 -12 10 -9 6 3 10 1 10 -4
0 -20 -21 -11 -29 12 -6 15 -8 4 -6 -35z m45 -25 c0 -16 -5 -35 -11 -43 -7
-11 -8 -4 -4 25 4 29 3 35 -4 20 -7 -15 -10 -16 -10 -4 -1 9 2 19 6 22 14 14
23 6 23 -20z m-30 -69 c0 -8 7 -14 15 -14 13 0 13 -3 3 -20 l-13 -20 -9 20
c-5 11 -13 20 -19 20 -5 0 -5 6 2 13 6 8 7 18 3 22 -4 5 -1 5 6 1 6 -4 12 -14
12 -22z m62 -40 c0 -27 3 -43 5 -36 3 6 9 10 14 6 5 -3 9 6 9 20 0 14 3 26 8
26 4 0 7 -18 8 -40 0 -22 -3 -35 -6 -30 -4 6 -14 8 -23 4 -9 -3 -22 0 -30 7
-12 12 -12 16 2 27 14 11 13 12 -9 6 -25 -7 -25 -6 -6 14 12 14 16 29 13 43
-4 14 -2 18 4 12 5 -5 10 -32 11 -59z m115 -10 c-3 -3 -12 -4 -19 -1 -8 3 -5
6 6 6 11 1 17 -2 13 -5z m-160 -20 c-3 -3 -12 -4 -19 -1 -8 3 -5 6 6 6 11 1
17 -2 13 -5z m-172 -14 c-3 -5 1 -10 9 -10 9 0 16 -9 16 -21 0 -12 -4 -18 -11
-13 -8 5 -10 -6 -7 -35 2 -22 0 -41 -4 -41 -5 0 -8 15 -8 34 0 18 -3 48 -6 65
-4 21 -3 31 5 31 7 0 9 -4 6 -10z m118 -7 c-7 -2 -21 -2 -30 0 -10 3 -4 5 12
5 17 0 24 -2 18 -5z m54 1 c-3 -3 -12 -4 -19 -1 -8 3 -5 6 6 6 11 1 17 -2 13
-5z m-67 -34 c0 -11 -2 -20 -4 -20 -2 0 -6 9 -9 20 -3 11 -1 20 4 20 5 0 9 -9
9 -20z m17 -17 c-3 -10 -5 -4 -5 12 0 17 2 24 5 18 2 -7 2 -21 0 -30z m20 -30
c-2 -16 -4 -5 -4 22 0 28 2 40 4 28 2 -13 2 -35 0 -50z m113 59 c8 -4 16 -13
18 -21 2 -11 0 -12 -10 -4 -7 6 -28 14 -45 18 l-33 7 -2 -64 -2 -63 -3 60 c-2
33 -10 63 -16 67 -15 9 72 9 93 0z m-93 -59 c-3 -10 -5 -2 -5 17 0 19 2 27 5
18 2 -10 2 -26 0 -35z m-112 27 c3 -5 1 -10 -4 -10 -6 0 -11 5 -11 10 0 6 2
10 4 10 3 0 8 -4 11 -10z m32 -5 c-4 -8 -2 -17 3 -20 17 -10 11 -35 -6 -28
-11 4 -12 8 -4 13 9 6 9 9 1 11 -11 4 -5 39 6 39 3 0 3 -7 0 -15z m120 -42
c-3 -10 -5 -2 -5 17 0 19 2 27 5 18 2 -10 2 -26 0 -35z m-154 10 c-7 -2 -19
-2 -25 0 -7 3 -2 5 12 5 14 0 19 -2 13 -5z m4 -19 c-3 -3 -12 -4 -19 -1 -8 3
-5 6 6 6 11 1 17 -2 13 -5z m-14 -21 c-7 -2 -21 -2 -30 0 -10 3 -5 5 12 5 17
0 24 -2 18 -5z m92 -22 c-3 -6 -14 -11 -23 -11 -13 0 -13 2 4 14 21 15 30 14
19 -3z m-92 2 c-36 -4 -42 -7 -46 -31 -4 -24 -4 -24 -6 6 l-1 32 48 -2 47 -1
-42 -4z m0 -20 c-7 -2 -19 -2 -25 0 -7 3 -2 5 12 5 14 0 19 -2 13 -5z m80 -30
c-7 -2 -19 -2 -25 0 -7 3 -2 5 12 5 14 0 19 -2 13 -5z m-50 -40 c-7 -2 -21 -2
-30 0 -10 3 -4 5 12 5 17 0 24 -2 18 -5z m-16 -19 c-3 -3 -12 -4 -19 -1 -8 3
-5 6 6 6 11 1 17 -2 13 -5z m71 -1 c-10 -2 -28 -2 -40 0 -13 2 -5 4 17 4 22 1
32 -1 23 -4z m-15 -20 c-7 -2 -21 -2 -30 0 -10 3 -4 5 12 5 17 0 24 -2 18 -5z"/>
<path d="M757 584 c-3 -4 -1 -16 5 -28 10 -19 10 -20 -5 -7 -15 11 -17 11 -17
-2 0 -8 -7 -18 -15 -21 -14 -5 -14 -9 1 -31 9 -14 14 -28 11 -31 -3 -3 -8 3
-11 14 -4 11 -13 23 -21 26 -17 6 -21 -9 -5 -19 6 -3 10 -11 10 -18 0 -8 -3
-8 -11 0 -6 6 -18 9 -27 5 -13 -5 -12 -7 4 -13 17 -7 17 -8 -4 -8 -19 -1 -22
-5 -17 -23 5 -21 5 -21 -7 -6 -23 27 -51 4 -43 -35 5 -27 4 -30 -7 -16 -10 12
-19 14 -36 8 -22 -8 -22 -10 -7 -40 9 -17 14 -33 11 -37 -3 -3 -6 -1 -6 4 0 5
-7 17 -15 27 -13 18 -14 18 -37 -5 -39 -39 -48 -63 -28 -78 10 -7 15 -21 13
-34 -4 -18 5 -26 44 -46 26 -14 51 -25 54 -25 3 0 20 17 39 38 25 29 30 41 21
50 -6 6 -11 15 -11 21 0 5 6 1 14 -10 13 -16 17 -17 28 -5 11 12 11 13 -1 6
-9 -5 -12 -4 -7 3 4 6 13 9 21 5 20 -7 19 6 -2 31 -17 20 -16 20 7 -1 21 -18
27 -19 38 -7 7 8 10 14 7 14 -3 0 -1 9 5 19 5 11 12 44 15 73 3 29 8 61 11 72
5 14 3 16 -7 10 -11 -6 -12 -5 -3 7 6 8 11 38 11 67 -1 49 -5 60 -20 46z
m-127 -174 c0 -5 -5 -10 -11 -10 -5 0 -7 5 -4 10 3 6 8 10 11 10 2 0 4 -4 4
-10z m-48 -52 c-9 -9 -15 -9 -24 0 -9 9 -7 12 12 12 19 0 21 -3 12 -12z m57
-42 c-3 -3 -11 5 -18 17 -13 21 -12 21 5 5 10 -10 16 -20 13 -22z m-30 -70
c-3 -3 -11 5 -18 17 -13 21 -12 21 5 5 10 -10 16 -20 13 -22z"/>
<path d="M3136 563 c-6 -14 -5 -15 5 -6 7 7 10 15 7 18 -3 3 -9 -2 -12 -12z"/>
<path d="M1590 559 c0 -5 5 -7 10 -4 6 3 10 8 10 11 0 2 -4 4 -10 4 -5 0 -10
-5 -10 -11z"/>
<path d="M3243 557 c-5 -7 -18 -31 -28 -55 -17 -40 -19 -41 -37 -26 -21 20
-25 9 -3 -12 19 -19 55 -2 55 26 0 10 4 21 10 25 5 3 7 12 3 20 -4 11 -1 13
11 9 20 -8 20 -11 1 -31 -19 -18 -16 -44 4 -51 10 -3 12 1 8 17 -3 13 -1 19 6
14 6 -4 8 0 4 10 -3 9 -2 19 3 22 15 9 12 19 -9 32 -15 9 -21 9 -28 0z"/>
<path d="M2878 521 l-25 -42 -15 31 -15 31 -25 -33 c-14 -18 -27 -40 -31 -48
-4 -11 -6 -11 -6 -2 -1 7 -8 21 -17 30 -16 15 -18 15 -33 -4 l-16 -21 -17 21
-17 21 -1 -26 c0 -34 38 -48 59 -21 11 14 13 14 8 1 -4 -12 2 -16 24 -17 23 0
35 7 51 31 11 18 17 23 13 12 -3 -11 -7 -24 -8 -28 -3 -13 31 -32 40 -23 4 5
2 11 -4 13 -7 3 -13 9 -13 15 0 7 5 6 14 -1 12 -10 19 -4 40 31 14 24 26 35
26 26 0 -9 -5 -20 -11 -23 -7 -5 -4 -14 7 -26 19 -22 12 -38 -9 -20 -11 9 -17
8 -27 -4 -11 -13 -10 -14 3 -10 8 4 18 2 22 -4 11 -18 32 -12 38 11 4 12 1 28
-5 35 -6 8 -7 17 -3 21 4 4 10 1 12 -6 3 -6 9 -10 13 -7 5 3 3 13 -5 23 -8 9
-21 26 -28 36 -13 18 -15 17 -39 -23z"/>
<path d="M111 534 c0 -11 3 -14 6 -6 3 7 2 16 -1 19 -3 4 -6 -2 -5 -13z"/>
<path d="M151 534 c0 -11 3 -14 6 -6 3 7 2 16 -1 19 -3 4 -6 -2 -5 -13z"/>
<path d="M1547 530 c3 -11 9 -17 15 -14 5 3 4 12 -3 20 -16 19 -18 18 -12 -6z"/>
<path d="M3190 540 c0 -5 5 -10 11 -10 5 0 7 5 4 10 -3 6 -8 10 -11 10 -2 0
-4 -4 -4 -10z"/>
<path d="M1371 513 c-11 -25 -14 -26 -23 -10 -9 16 -12 16 -41 -9 -18 -15 -37
-44 -44 -68 -15 -50 -9 -60 7 -12 14 43 29 56 25 21 -2 -22 5 -30 28 -26 4 0
7 -6 7 -14 0 -10 -6 -12 -17 -8 -16 6 -16 5 -4 -11 14 -16 16 -17 27 -1 19 26
25 0 9 -39 -8 -19 -15 -41 -15 -48 1 -20 29 34 30 55 0 20 24 18 26 -1 3 -25
5 -27 14 -12 8 12 10 11 10 -7 0 -17 -4 -21 -17 -16 -16 6 -16 4 1 -15 18 -21
20 -21 32 -4 12 16 13 16 13 -3 0 -11 -6 -37 -13 -57 -8 -21 -10 -38 -5 -38 5
0 15 21 23 47 l14 48 11 -27 c6 -16 15 -28 21 -28 5 0 10 -5 10 -11 0 -6 -9
-8 -20 -4 -28 9 -25 1 7 -20 23 -16 25 -16 20 -1 -4 10 -1 16 8 16 18 0 18
-22 1 -69 -8 -22 -15 -31 -20 -23 -4 7 -13 12 -19 12 -7 0 -1 -9 12 -19 14
-11 20 -21 13 -25 -6 -3 -13 -2 -17 4 -3 5 -11 10 -17 10 -6 0 -3 -9 7 -20 10
-11 21 -20 25 -20 5 0 16 27 26 60 16 54 38 76 39 39 1 -8 6 -13 13 -12 7 2
12 -6 12 -17 0 -23 -10 -26 -28 -8 -9 9 -12 9 -12 0 0 -7 7 -15 15 -18 8 -4
15 -11 15 -17 0 -7 -4 -7 -12 1 -18 18 -27 15 -37 -10 -17 -46 -21 -78 -11
-78 5 0 10 9 10 20 0 11 5 20 11 20 6 0 9 -9 6 -20 -3 -11 -1 -20 4 -20 5 0 9
5 9 10 0 7 6 7 19 0 27 -14 29 -14 36 20 4 16 11 30 17 30 6 0 8 -10 4 -24 -4
-17 -1 -26 10 -30 24 -9 28 -7 15 8 -13 15 -4 49 10 40 5 -3 7 -10 4 -15 -4
-5 -3 -14 1 -20 4 -8 9 -7 15 2 7 11 9 10 9 -3 0 -15 10 -18 67 -18 69 0 75 7
21 25 -37 12 -50 47 -41 112 4 32 10 43 24 43 9 0 19 -4 21 -10 2 -5 8 -6 15
-2 10 6 9 34 -2 127 -13 111 -32 207 -34 178 -2 -20 -19 -15 -26 7 -3 11 -12
20 -19 20 -9 0 -13 -18 -12 -60 0 -56 8 -76 19 -47 3 7 6 5 6 -5 1 -12 -6 -18
-19 -18 -11 0 -20 -4 -20 -9 0 -4 9 -20 20 -34 22 -28 25 -48 9 -64 -7 -7 -8
-13 0 -17 6 -4 7 -15 1 -29 -5 -12 -11 -34 -14 -49 -8 -38 -37 -36 -54 2 l-14
30 -29 -21 c-41 -29 -36 -15 12 36 49 53 73 85 62 85 -4 -1 -20 -17 -35 -37
-22 -29 -29 -32 -34 -19 -8 20 -23 12 -19 -12 1 -9 0 -11 -2 -4 -3 6 -8 12
-12 12 -16 0 -20 -13 -10 -31 6 -13 6 -19 -1 -19 -5 0 -10 7 -10 16 0 11 -5
14 -17 10 -9 -4 7 19 37 52 53 56 76 69 63 35 -4 -11 -3 -14 5 -9 16 9 15 31
-1 44 -9 8 -18 3 -32 -18 -11 -17 -26 -32 -34 -35 -17 -7 -41 12 -41 33 0 12
-6 10 -26 -9 -25 -23 -26 -23 -39 -5 -8 10 -11 24 -8 30 4 6 9 1 13 -13 l5
-23 18 20 c12 13 16 28 12 41 -4 13 -2 21 5 21 6 0 9 4 5 9 -3 5 0 13 6 17 9
5 10 -1 5 -22 l-6 -29 20 24 c21 24 23 42 5 44 -6 0 -19 9 -29 19 -25 23 -36
23 -36 -1 0 -22 -49 -84 -50 -63 0 7 8 22 19 33 18 20 37 96 26 107 -3 3 -5
-4 -5 -15 0 -26 -10 -35 -25 -23 -9 8 -16 2 -25 -19 -12 -30 -44 -54 -33 -25
3 8 0 21 -7 29 -10 12 -17 11 -48 -13 l-36 -27 37 48 c20 27 37 53 37 58 0 16
-6 10 -19 -18z m-34 -35 c-3 -8 -6 -5 -6 6 -1 11 2 17 5 13 3 -3 4 -12 1 -19z
m96 -79 c-43 -47 -53 -51 -21 -8 13 17 27 37 33 44 5 8 13 11 17 9 4 -3 -9
-23 -29 -45z m-63 27 c0 -2 -8 -10 -17 -17 -16 -13 -17 -12 -4 4 13 16 21 21
21 13z m146 -62 c1 -34 -12 -48 -18 -18 -3 14 -7 13 -30 -6 -37 -28 -36 -17 2
23 16 18 30 36 30 41 0 27 15 -10 16 -40z m-76 -4 c0 -5 -2 -10 -4 -10 -3 0
-8 5 -11 10 -3 6 -1 10 4 10 6 0 11 -4 11 -10z m30 -54 c0 -3 -4 -8 -10 -11
-5 -3 -10 -1 -10 4 0 6 5 11 10 11 6 0 10 -2 10 -4z m80 -15 c0 -5 3 -16 6
-25 3 -9 1 -16 -5 -16 -6 0 -11 7 -11 16 0 8 -5 12 -11 8 -6 -3 -9 -15 -6 -25
3 -11 1 -19 -4 -19 -5 0 -9 7 -9 16 0 9 -5 12 -12 8 -7 -4 -2 5 11 19 25 27
41 34 41 18z m81 -144 l-23 -22 17 28 c10 15 20 25 23 22 3 -3 -5 -16 -17 -28z
m-11 -42 c0 -8 -4 -23 -9 -33 -5 -9 -12 -26 -16 -36 -5 -18 -7 -18 -30 4 -29
27 -34 52 -6 26 19 -17 20 -17 30 3 6 11 11 27 11 35 0 9 5 16 10 16 6 0 10
-7 10 -15z m25 -25 c3 -5 1 -10 -4 -10 -6 0 -11 5 -11 10 0 6 2 10 4 10 3 0 8
-4 11 -10z"/>
<path d="M1401 524 c0 -11 3 -14 6 -6 3 7 2 16 -1 19 -3 4 -6 -2 -5 -13z"/>
<path d="M1510 531 c0 -6 4 -13 10 -16 6 -3 7 1 4 9 -7 18 -14 21 -14 7z"/>
<path d="M1605 520 c9 -30 13 -35 21 -27 3 3 -2 16 -11 29 l-17 23 7 -25z"/>
<path d="M2745 531 c-3 -6 0 -20 8 -32 9 -13 17 -16 22 -10 3 6 0 20 -8 32 -9
13 -17 16 -22 10z"/>
<path d="M3092 520 c7 -11 16 -20 19 -20 9 0 21 32 14 38 -3 3 -5 -1 -5 -8 0
-11 -3 -11 -12 -2 -19 19 -29 14 -16 -8z"/>
<path d="M3156 532 c-3 -5 3 -17 14 -27 17 -15 20 -16 20 -3 0 19 -26 42 -34
30z"/>
<path d="M15 520 l20 -7 -20 -5 c-12 -4 -5 -6 18 -7 24 -1 37 3 37 12 0 8 -14
13 -38 14 -27 0 -31 -1 -17 -7z"/>
<path d="M620 519 c0 -5 5 -7 10 -4 6 3 10 8 10 11 0 2 -4 4 -10 4 -5 0 -10
-5 -10 -11z"/>
<path d="M1180 509 c0 -5 5 -7 10 -4 6 3 10 8 10 11 0 2 -4 4 -10 4 -5 0 -10
-5 -10 -11z"/>
<path d="M2690 504 c0 -8 5 -12 10 -9 6 4 8 11 5 16 -9 14 -15 11 -15 -7z"/>
<path d="M2990 513 c1 -14 27 -43 33 -37 7 7 -14 44 -25 44 -5 0 -8 -3 -8 -7z"/>
<path d="M1564 485 c-9 -14 -15 -28 -12 -30 2 -2 12 9 22 25 21 36 13 40 -10
5z"/>
<path d="M3042 471 c-23 -41 -28 -61 -14 -61 5 0 15 18 22 40 11 32 16 38 30
30 24 -13 34 0 12 16 -24 19 -26 18 -50 -25z"/>
<path d="M3127 475 c-13 -28 -14 -35 -3 -35 7 0 16 14 20 32 9 43 3 44 -17 3z"/>
<path d="M1030 496 c0 -2 7 -9 15 -16 9 -7 15 -8 15 -2 0 5 -7 12 -15 16 -8 3
-15 4 -15 2z"/>
<path d="M1405 480 c19 -21 35 -18 35 6 0 17 -16 19 -23 2 -4 -10 -6 -10 -6 0
-1 6 -6 12 -13 12 -6 0 -3 -8 7 -20z"/>
<path d="M1641 479 c-7 -12 -10 -23 -8 -26 3 -3 11 5 17 17 6 12 10 23 8 25
-2 2 -10 -5 -17 -16z"/>
<path d="M1590 481 c0 -5 5 -13 10 -16 6 -3 10 -2 10 4 0 5 -4 13 -10 16 -5 3
-10 2 -10 -4z"/>
<path d="M2970 472 c0 -4 6 -14 12 -20 10 -10 10 -15 -2 -22 -13 -8 -12 -10 3
-10 23 0 33 26 17 45 -13 16 -30 20 -30 7z"/>
<path d="M73 463 c9 -2 23 -2 30 0 6 3 -1 5 -18 5 -16 0 -22 -2 -12 -5z"/>
<path d="M420 459 c0 -5 5 -7 10 -4 6 3 10 8 10 11 0 2 -4 4 -10 4 -5 0 -10
-5 -10 -11z"/>
<path d="M1227 459 c7 -7 15 -10 18 -7 3 3 -2 9 -12 12 -14 6 -15 5 -6 -5z"/>
<path d="M2625 460 c-3 -5 1 -10 10 -10 9 0 13 5 10 10 -3 6 -8 10 -10 10 -2
0 -7 -4 -10 -10z"/>
<path d="M2947 440 c-3 -11 -2 -20 3 -20 12 0 21 28 11 35 -5 2 -11 -4 -14
-15z"/>
<path d="M3066 444 c-4 -9 -4 -19 -2 -21 8 -8 26 8 26 23 0 19 -16 18 -24 -2z"/>
<path d="M3890 446 c0 -8 4 -17 9 -20 5 -4 7 3 4 14 -6 23 -13 26 -13 6z"/>
<path d="M1580 444 c0 -5 5 -15 12 -22 8 -8 8 -15 -1 -26 -13 -15 -6 -76 8
-76 4 0 15 16 24 35 10 21 12 35 6 35 -6 0 -13 -9 -16 -20 -6 -21 -23 -28 -23
-9 0 6 5 19 10 30 8 14 7 25 -5 41 -8 13 -15 18 -15 12z"/>
<path d="M1640 421 c0 -6 4 -13 10 -16 6 -3 7 1 4 9 -7 18 -14 21 -14 7z"/>
<path d="M3908 322 c4 -96 -9 -152 -32 -133 -10 8 -15 5 -24 -14 -18 -38 -79
-101 -133 -135 -27 -18 -49 -34 -49 -36 0 -2 57 -4 128 -3 99 0 122 3 105 11
-24 12 -30 32 -13 43 6 3 7 -1 4 -9 -3 -9 -2 -16 4 -16 11 0 21 77 23 165 0
43 3 54 9 40 7 -17 9 -16 9 10 0 29 -23 152 -30 160 -2 2 -3 -36 -1 -83z"/>
<path d="M1568 315 c3 -19 8 -23 15 -16 8 8 7 16 -5 27 -14 14 -15 14 -10 -11z"/>
<path d="M1200 326 c0 -2 8 -10 18 -17 15 -13 16 -12 3 4 -13 16 -21 21 -21
13z"/>
<path d="M418 293 c7 -3 16 -2 19 1 4 3 -2 6 -13 5 -11 0 -14 -3 -6 -6z"/>
<path d="M1166 268 c-18 -36 -19 -38 -8 -38 5 0 13 16 19 35 14 43 9 45 -11 3z"/>
<path d="M1630 276 c0 -9 5 -16 10 -16 6 0 10 4 10 9 0 6 -4 13 -10 16 -5 3
-10 -1 -10 -9z"/>
<path d="M1374 265 c11 -8 25 -15 30 -15 6 0 2 7 -8 15 -11 8 -25 15 -30 15
-6 0 -2 -7 8 -15z"/>
<path d="M1351 243 c-1 -6 -4 -20 -7 -30 -5 -17 -5 -17 6 0 6 10 9 23 6 30 -3
9 -5 9 -5 0z"/>
<path d="M1690 234 c0 -8 5 -12 10 -9 6 3 10 10 10 16 0 5 -4 9 -10 9 -5 0
-10 -7 -10 -16z"/>
<path d="M1664 204 c3 -9 6 -19 6 -24 0 -4 7 -10 15 -14 14 -5 13 -2 0 24 -16
31 -32 42 -21 14z"/>
<path d="M2400 211 c0 -5 -9 -11 -20 -14 -13 -3 -18 -11 -14 -21 4 -10 11 -12
22 -6 10 4 33 13 52 18 25 7 29 10 13 11 -13 1 -23 6 -23 11 0 6 -7 10 -15 10
-8 0 -15 -4 -15 -9z"/>
<path d="M3465 210 c-3 -5 -1 -10 4 -10 6 0 11 5 11 10 0 6 -2 10 -4 10 -3 0
-8 -4 -11 -10z"/>
<path d="M3930 201 c0 -6 4 -13 10 -16 6 -3 7 1 4 9 -7 18 -14 21 -14 7z"/>
<path d="M1159 174 c-5 -15 -12 -31 -16 -37 -3 -6 -1 -7 4 -4 11 7 36 67 27
67 -2 0 -9 -12 -15 -26z"/>
<path d="M1207 185 c-4 -8 -2 -17 2 -20 5 -2 11 4 14 15 6 23 -8 27 -16 5z"/>
<path d="M1252 180 c-7 -11 -12 -28 -12 -37 1 -10 7 -3 16 16 16 38 14 50 -4
21z"/>
<path d="M1450 192 c0 -10 33 -42 43 -42 14 0 5 16 -18 33 -14 10 -25 14 -25
9z"/>
<path d="M1386 175 c10 -8 24 -14 29 -14 6 0 1 6 -9 14 -11 8 -24 15 -30 15
-5 0 -1 -7 10 -15z"/>
<path d="M2760 182 c0 -6 -17 -11 -37 -12 -126 -3 -243 -13 -243 -21 0 -5 7
-9 15 -10 46 -3 61 -2 71 4 18 11 52 -4 58 -26 3 -12 6 -44 7 -72 l2 -50 9 63
c13 81 32 83 23 2 -8 -70 7 -82 24 -17 18 69 30 79 32 27 1 -25 4 -35 6 -22 2
12 10 22 18 22 7 0 16 6 18 13 3 6 6 1 6 -13 l1 -25 20 25 c15 20 20 21 20 8
0 -13 9 -17 43 -16 73 1 79 5 50 36 l-25 27 24 6 c22 5 22 6 -7 14 -16 4 -34
9 -40 10 -26 3 -71 19 -82 28 -9 6 -13 6 -13 -1z m72 -46 c29 -5 67 -41 55
-52 -6 -7 -161 37 -174 49 -10 9 -1 12 37 11 27 -1 64 -4 82 -8z"/>
<path d="M3462 160 c0 -19 2 -27 5 -17 2 9 2 25 0 35 -3 9 -5 1 -5 -18z"/>
<path d="M3973 150 c0 -25 2 -35 4 -22 2 12 2 32 0 45 -2 12 -4 2 -4 -23z"/>
<path d="M1360 162 c0 -14 37 -44 43 -35 3 4 -6 16 -19 26 -13 10 -24 14 -24
9z"/>
<path d="M1430 131 c-6 -23 -14 -49 -17 -57 -3 -8 -1 -14 5 -14 6 0 14 15 17
33 4 17 11 37 16 42 4 6 4 17 -1 25 -6 9 -12 1 -20 -29z"/>
<path d="M2320 156 c0 -9 7 -12 20 -9 11 3 17 9 14 14 -8 14 -34 10 -34 -5z"/>
<path d="M1190 151 c0 -5 7 -12 16 -15 14 -5 15 -4 4 9 -14 17 -20 19 -20 6z"/>
<path d="M1305 140 c10 -11 20 -18 23 -15 7 6 -18 35 -31 35 -5 0 -2 -9 8 -20z"/>
<path d="M748 133 c7 -3 16 -2 19 1 4 3 -2 6 -13 5 -11 0 -14 -3 -6 -6z"/>
<path d="M2962 128 c3 -8 52 -19 124 -29 65 -9 120 -16 121 -15 0 1 -10 15
-24 31 -14 17 -22 24 -19 18 9 -16 -7 -16 -54 -3 -24 7 -36 6 -41 -2 -6 -9
-17 -9 -47 0 -50 15 -65 15 -60 0z"/>
<path d="M1337 90 c-8 -22 -12 -42 -8 -45 8 -5 35 74 28 81 -2 2 -11 -14 -20
-36z"/>
<path d="M766 105 c4 -8 8 -15 10 -15 2 0 4 7 4 15 0 8 -4 15 -10 15 -5 0 -7
-7 -4 -15z"/>
<path d="M1297 105 c3 -8 9 -12 14 -9 12 7 11 11 -5 17 -10 4 -13 1 -9 -8z"/>
<path d="M1250 90 c-6 -12 -9 -24 -7 -27 3 -2 11 5 17 17 6 12 9 24 7 27 -3 2
-11 -5 -17 -17z"/>
<path d="M1380 101 c0 -5 5 -13 10 -16 6 -3 10 -2 10 4 0 5 -4 13 -10 16 -5 3
-10 2 -10 -4z"/>
<path d="M2354 101 c3 -4 17 -7 32 -5 41 4 41 14 0 14 -20 0 -35 -4 -32 -9z"/>
<path d="M2910 101 c0 -9 31 -21 68 -27 12 -1 20 1 17 7 -4 5 -15 9 -25 9 -10
0 -22 5 -25 10 -8 12 -35 13 -35 1z"/>
<path d="M3450 56 c0 -54 1 -56 28 -56 23 1 24 2 10 11 -12 7 -18 22 -18 49 0
21 -4 42 -10 45 -6 4 -10 -15 -10 -49z"/>
<path d="M3938 55 c-3 -54 -3 -55 25 -55 15 0 27 5 27 12 0 20 -32 98 -40 98
-5 0 -10 -25 -12 -55z"/>
<path d="M460 75 c-11 -13 -10 -15 6 -9 10 4 16 4 12 -1 -4 -4 -3 -14 3 -22 9
-10 8 -17 -1 -28 -11 -13 -7 -15 23 -15 20 0 38 4 41 8 3 5 -12 25 -33 46 -33
33 -39 35 -51 21z"/>
<path d="M1287 79 c7 -7 15 -10 18 -7 3 3 -2 9 -12 12 -14 6 -15 5 -6 -5z"/>
<path d="M1370 75 c0 -5 7 -17 17 -27 20 -23 11 -35 -10 -13 -15 14 -17 14
-27 -6 -13 -24 -4 -41 10 -19 7 12 12 12 22 2 17 -17 25 -15 31 7 3 12 -4 28
-19 42 -13 12 -24 19 -24 14z"/>
<path d="M1450 68 c0 -20 37 -50 43 -35 2 7 -6 20 -19 30 -18 13 -24 14 -24 5z"/>
<path d="M4010 54 c0 -31 21 -59 39 -52 5 1 -1 21 -15 43 l-24 40 0 -31z"/>
<path d="M740 50 c-14 -11 -20 -20 -14 -20 6 0 19 9 29 20 23 25 17 25 -15 0z"/>
<path d="M3026 61 c-3 -5 0 -12 6 -15 7 -3 0 -2 -16 1 -20 4 -27 2 -24 -7 2
-7 24 -13 55 -14 49 -1 51 0 36 16 -9 10 -18 16 -21 13 -3 -3 -11 0 -18 6 -8
6 -14 6 -18 0z"/>
<path d="M1276 44 c-7 -19 10 -44 30 -44 20 0 17 24 -5 44 -17 16 -19 16 -25
0z m32 -22 c2 -7 -2 -10 -12 -6 -9 3 -16 11 -16 16 0 13 23 5 28 -10z"/>
<path d="M443 33 c9 -2 23 -2 30 0 6 3 -1 5 -18 5 -16 0 -22 -2 -12 -5z"/>
<path d="M1190 36 c0 -2 8 -10 18 -17 15 -13 16 -12 3 4 -13 16 -21 21 -21 13z"/>
<path d="M1437 34 c-4 -4 -7 -14 -7 -23 0 -11 3 -12 11 -4 6 6 10 16 7 23 -2
6 -7 8 -11 4z"/>
<path d="M794 15 c-17 -13 -17 -14 -2 -15 9 0 20 5 23 11 11 17 0 20 -21 4z"/>
<path d="M3315 20 c3 -5 10 -10 16 -10 5 0 9 5 9 10 0 6 -7 10 -16 10 -8 0
-12 -4 -9 -10z"/>
<path d="M1460 10 c0 -6 7 -10 15 -10 8 0 15 2 15 4 0 2 -7 6 -15 10 -8 3 -15
1 -15 -4z"/>
</g>
</svg>
